<mxfile host="65bd71144e" modified="2020-10-12T18:15:40.017Z" agent="5.0 (X11; Linux x86_64) AppleWebKit/537.36 (KHTML, like Gecko) Code/1.50.0 Chrome/83.0.4103.122 Electron/9.2.1 Safari/537.36" etag="Xfk7stc0GOBUypLDeIeF" version="13.6.5" pages="3">
    <diagram name="Page-1" id="9f46799a-70d6-7492-0946-bef42562c5a5">
        <mxGraphModel dx="1145" dy="665" grid="1" gridSize="10" guides="1" tooltips="1" connect="1" arrows="1" fold="1" page="1" pageScale="1" pageWidth="1100" pageHeight="850" background="#ffffff" math="0" shadow="0">
            <root>
                <mxCell id="0"/>
                <mxCell id="1" parent="0"/>
                <mxCell id="iYWgP3UckeU0uiQLs7u8-320" style="edgeStyle=orthogonalEdgeStyle;rounded=0;orthogonalLoop=1;jettySize=auto;html=1;entryX=0.343;entryY=1.018;entryDx=0;entryDy=0;entryPerimeter=0;startArrow=ERoneToMany;startFill=0;startSize=9;endArrow=classic;endFill=1;endSize=9;strokeColor=#000000;strokeWidth=1;fontColor=#000000;exitX=0.536;exitY=1.014;exitDx=0;exitDy=0;exitPerimeter=0;" parent="1" source="4LwVluVdOsAo0shiaIFr-38" target="iYWgP3UckeU0uiQLs7u8-315" edge="1">
                    <mxGeometry relative="1" as="geometry">
                        <Array as="points">
                            <mxPoint x="2027" y="960"/>
                            <mxPoint x="1840" y="960"/>
                            <mxPoint x="1840" y="1170"/>
                            <mxPoint x="790" y="1170"/>
                        </Array>
                    </mxGeometry>
                </mxCell>
                <mxCell id="1LdOg6mQmbc9WHdVqoS4-568" style="edgeStyle=orthogonalEdgeStyle;rounded=0;orthogonalLoop=1;jettySize=auto;html=1;startArrow=ERoneToMany;startFill=0;startSize=9;endArrow=classic;endFill=1;endSize=9;strokeColor=#000000;strokeWidth=1;fontColor=#000000;" parent="1" source="1LdOg6mQmbc9WHdVqoS4-433" target="4LwVluVdOsAo0shiaIFr-22" edge="1">
                    <mxGeometry relative="1" as="geometry"/>
                </mxCell>
                <mxCell id="8Ao7-pVW5TEEtUSbZB_A-5" style="edgeStyle=orthogonalEdgeStyle;rounded=0;orthogonalLoop=1;jettySize=auto;html=1;exitX=0.25;exitY=0;exitDx=0;exitDy=0;entryX=0.432;entryY=0.999;entryDx=0;entryDy=0;entryPerimeter=0;strokeColor=#000000;startArrow=classic;startFill=1;endArrow=none;endFill=0;endSize=9;startSize=9;" edge="1" parent="1" source="8AqKABZhVZUc1JRrgyvb-303" target="8AqKABZhVZUc1JRrgyvb-336">
                    <mxGeometry relative="1" as="geometry"/>
                </mxCell>
                <mxCell id="8AqKABZhVZUc1JRrgyvb-303" value="&lt;span style=&quot;color: rgb(255 , 255 , 255)&quot;&gt;Matches&lt;/span&gt;" style="shape=table;html=1;whiteSpace=wrap;startSize=30;container=1;collapsible=0;childLayout=tableLayout;fixedRows=1;rowLines=1;fontStyle=1;align=center;shadow=0;sketch=0;strokeColor=#000000;strokeWidth=1;fillColor=#2a2a2a;gradientColor=none;fontColor=#000000;columnLines=1;resizeLast=1;" parent="1" vertex="1">
                    <mxGeometry x="1330" y="840" width="320" height="290" as="geometry"/>
                </mxCell>
                <mxCell id="8AqKABZhVZUc1JRrgyvb-304" value="" style="shape=partialRectangle;html=1;whiteSpace=wrap;collapsible=0;dropTarget=0;pointerEvents=0;fillColor=none;top=0;left=0;bottom=1;right=0;points=[[0,0.5],[1,0.5]];portConstraint=eastwest;" parent="8AqKABZhVZUc1JRrgyvb-303" vertex="1">
                    <mxGeometry y="30" width="320" height="30" as="geometry"/>
                </mxCell>
                <mxCell id="8AqKABZhVZUc1JRrgyvb-305" value="&lt;span style=&quot;color: rgb(0 , 0 , 0) ; font-weight: 700&quot;&gt;PK, FK&lt;/span&gt;" style="shape=partialRectangle;html=1;whiteSpace=wrap;connectable=0;fillColor=none;top=0;left=0;bottom=1;right=0;overflow=hidden;strokeColor=#000000;" parent="8AqKABZhVZUc1JRrgyvb-304" vertex="1">
                    <mxGeometry width="60" height="30" as="geometry"/>
                </mxCell>
                <mxCell id="8AqKABZhVZUc1JRrgyvb-306" value="&lt;span style=&quot;color: rgb(0 , 0 , 0) ; font-weight: 700&quot;&gt;+&amp;nbsp;&lt;/span&gt;" style="shape=partialRectangle;html=1;whiteSpace=wrap;connectable=0;fillColor=none;top=0;left=0;bottom=1;right=0;align=left;spacingLeft=6;overflow=hidden;strokeColor=#000000;" parent="8AqKABZhVZUc1JRrgyvb-304" vertex="1">
                    <mxGeometry x="60" width="120" height="30" as="geometry"/>
                </mxCell>
                <mxCell id="8AqKABZhVZUc1JRrgyvb-307" value="&lt;font color=&quot;#000000&quot;&gt;&lt;b&gt;Int&lt;/b&gt;&lt;/font&gt;" style="shape=partialRectangle;html=1;whiteSpace=wrap;connectable=0;fillColor=none;top=0;left=0;bottom=1;right=0;align=left;spacingLeft=6;overflow=hidden;strokeColor=#000000;" parent="8AqKABZhVZUc1JRrgyvb-304" vertex="1">
                    <mxGeometry x="180" width="140" height="30" as="geometry"/>
                </mxCell>
                <mxCell id="8AqKABZhVZUc1JRrgyvb-308" value="" style="shape=partialRectangle;html=1;whiteSpace=wrap;collapsible=0;dropTarget=0;pointerEvents=0;fillColor=none;top=0;left=0;bottom=0;right=0;points=[[0,0.5],[1,0.5]];portConstraint=eastwest;fontColor=#000000;" parent="8AqKABZhVZUc1JRrgyvb-303" vertex="1">
                    <mxGeometry y="60" width="320" height="30" as="geometry"/>
                </mxCell>
                <mxCell id="8AqKABZhVZUc1JRrgyvb-309" value="&lt;span style=&quot;font-weight: 700&quot;&gt;PK, FK&lt;/span&gt;" style="shape=partialRectangle;html=1;whiteSpace=wrap;connectable=0;fillColor=none;top=0;left=0;bottom=0;right=0;overflow=hidden;fontColor=#000000;" parent="8AqKABZhVZUc1JRrgyvb-308" vertex="1">
                    <mxGeometry width="60" height="30" as="geometry"/>
                </mxCell>
                <mxCell id="8AqKABZhVZUc1JRrgyvb-310" value="+&amp;nbsp;" style="shape=partialRectangle;html=1;whiteSpace=wrap;connectable=0;fillColor=none;top=0;left=0;bottom=0;right=0;align=left;spacingLeft=6;overflow=hidden;fontColor=#000000;" parent="8AqKABZhVZUc1JRrgyvb-308" vertex="1">
                    <mxGeometry x="60" width="120" height="30" as="geometry"/>
                </mxCell>
                <mxCell id="8AqKABZhVZUc1JRrgyvb-311" value="&lt;b&gt;varchar(50)&lt;/b&gt;" style="shape=partialRectangle;html=1;whiteSpace=wrap;connectable=0;fillColor=none;top=0;left=0;bottom=0;right=0;align=left;spacingLeft=6;overflow=hidden;fontColor=#000000;" parent="8AqKABZhVZUc1JRrgyvb-308" vertex="1">
                    <mxGeometry x="180" width="140" height="30" as="geometry"/>
                </mxCell>
                <mxCell id="8AqKABZhVZUc1JRrgyvb-312" value="" style="shape=partialRectangle;html=1;whiteSpace=wrap;collapsible=0;dropTarget=0;pointerEvents=0;fillColor=none;top=0;left=0;bottom=0;right=0;points=[[0,0.5],[1,0.5]];portConstraint=eastwest;fontColor=#000000;" parent="8AqKABZhVZUc1JRrgyvb-303" vertex="1">
                    <mxGeometry y="90" width="320" height="30" as="geometry"/>
                </mxCell>
                <mxCell id="8AqKABZhVZUc1JRrgyvb-313" value="" style="shape=partialRectangle;html=1;whiteSpace=wrap;connectable=0;fillColor=none;top=0;left=0;bottom=0;right=0;overflow=hidden;fontColor=#000000;" parent="8AqKABZhVZUc1JRrgyvb-312" vertex="1">
                    <mxGeometry width="60" height="30" as="geometry"/>
                </mxCell>
                <mxCell id="8AqKABZhVZUc1JRrgyvb-314" value="-&amp;nbsp;" style="shape=partialRectangle;html=1;whiteSpace=wrap;connectable=0;fillColor=none;top=0;left=0;bottom=0;right=0;align=left;spacingLeft=6;overflow=hidden;fontColor=#000000;" parent="8AqKABZhVZUc1JRrgyvb-312" vertex="1">
                    <mxGeometry x="60" width="120" height="30" as="geometry"/>
                </mxCell>
                <mxCell id="8AqKABZhVZUc1JRrgyvb-315" value="&lt;b&gt;varchar(50)&lt;/b&gt;" style="shape=partialRectangle;html=1;whiteSpace=wrap;connectable=0;fillColor=none;top=0;left=0;bottom=0;right=0;align=left;spacingLeft=6;overflow=hidden;fontColor=#000000;" parent="8AqKABZhVZUc1JRrgyvb-312" vertex="1">
                    <mxGeometry x="180" width="140" height="30" as="geometry"/>
                </mxCell>
                <mxCell id="8AqKABZhVZUc1JRrgyvb-316" value="" style="shape=partialRectangle;html=1;whiteSpace=wrap;collapsible=0;dropTarget=0;pointerEvents=0;fillColor=none;top=0;left=0;bottom=1;right=0;points=[[0,0.5],[1,0.5]];portConstraint=eastwest;" parent="8AqKABZhVZUc1JRrgyvb-303" vertex="1">
                    <mxGeometry y="120" width="320" height="170" as="geometry"/>
                </mxCell>
                <mxCell id="8AqKABZhVZUc1JRrgyvb-317" value="" style="shape=partialRectangle;html=1;whiteSpace=wrap;connectable=0;fillColor=none;top=0;left=0;bottom=1;right=0;overflow=hidden;strokeColor=#000000;" parent="8AqKABZhVZUc1JRrgyvb-316" vertex="1">
                    <mxGeometry width="60" height="170" as="geometry"/>
                </mxCell>
                <mxCell id="8AqKABZhVZUc1JRrgyvb-318" value="&lt;span style=&quot;color: rgb(0 , 0 , 0)&quot;&gt;+&amp;nbsp;&lt;/span&gt;&lt;br style=&quot;padding: 0px ; margin: 0px ; color: rgb(0 , 0 , 0)&quot;&gt;&lt;span style=&quot;color: rgb(0 , 0 , 0)&quot;&gt;+&amp;nbsp;&lt;/span&gt;&lt;br style=&quot;padding: 0px ; margin: 0px ; color: rgb(0 , 0 , 0)&quot;&gt;&lt;span style=&quot;color: rgb(0 , 0 , 0)&quot;&gt;+&amp;nbsp;&lt;/span&gt;&lt;br style=&quot;padding: 0px ; margin: 0px ; color: rgb(0 , 0 , 0)&quot;&gt;&lt;span style=&quot;color: rgb(0 , 0 , 0)&quot;&gt;+&amp;nbsp;&lt;/span&gt;&lt;br style=&quot;padding: 0px ; margin: 0px ; color: rgb(0 , 0 , 0)&quot;&gt;&lt;span style=&quot;color: rgb(0 , 0 , 0)&quot;&gt;+&amp;nbsp;&lt;/span&gt;&lt;br style=&quot;padding: 0px ; margin: 0px ; color: rgb(0 , 0 , 0)&quot;&gt;&lt;span style=&quot;color: rgb(0 , 0 , 0)&quot;&gt;+&amp;nbsp;&lt;/span&gt;&lt;br style=&quot;padding: 0px ; margin: 0px ; color: rgb(0 , 0 , 0)&quot;&gt;&lt;span style=&quot;color: rgb(0 , 0 , 0)&quot;&gt;+&amp;nbsp;&lt;/span&gt;&lt;br style=&quot;padding: 0px ; margin: 0px ; color: rgb(0 , 0 , 0)&quot;&gt;&lt;span style=&quot;color: rgb(0 , 0 , 0)&quot;&gt;+&lt;/span&gt;" style="shape=partialRectangle;html=1;whiteSpace=wrap;connectable=0;fillColor=none;top=0;left=0;bottom=1;right=0;align=left;spacingLeft=6;overflow=hidden;strokeColor=#000000;flipH=1;" parent="8AqKABZhVZUc1JRrgyvb-316" vertex="1">
                    <mxGeometry x="60" width="120" height="170" as="geometry"/>
                </mxCell>
                <mxCell id="8AqKABZhVZUc1JRrgyvb-319" value="&lt;b style=&quot;color: rgb(0 , 0 , 0)&quot;&gt;varchar(50)&lt;br&gt;&lt;/b&gt;&lt;b style=&quot;color: rgb(0 , 0 , 0)&quot;&gt;varchar(50)&lt;br&gt;&lt;/b&gt;&lt;b style=&quot;color: rgb(0 , 0 , 0)&quot;&gt;varchar(50)&lt;br&gt;&lt;/b&gt;&lt;b style=&quot;color: rgb(0 , 0 , 0)&quot;&gt;varchar(50)&lt;br&gt;&lt;/b&gt;&lt;b style=&quot;color: rgb(0 , 0 , 0)&quot;&gt;varchar(50)&lt;br&gt;&lt;/b&gt;&lt;b style=&quot;color: rgb(0 , 0 , 0)&quot;&gt;varchar(50)&lt;br&gt;&lt;/b&gt;&lt;b style=&quot;color: rgb(0 , 0 , 0)&quot;&gt;varchar(50)&lt;br&gt;&lt;/b&gt;&lt;b style=&quot;color: rgb(0 , 0 , 0)&quot;&gt;varchar(50)&lt;/b&gt;&lt;b style=&quot;color: rgb(0 , 0 , 0)&quot;&gt;&lt;br&gt;&lt;/b&gt;" style="shape=partialRectangle;html=1;whiteSpace=wrap;connectable=0;fillColor=none;top=0;left=0;bottom=1;right=0;align=left;spacingLeft=6;overflow=hidden;strokeColor=#000000;flipH=1;" parent="8AqKABZhVZUc1JRrgyvb-316" vertex="1">
                    <mxGeometry x="180" width="140" height="170" as="geometry"/>
                </mxCell>
                <mxCell id="4LwVluVdOsAo0shiaIFr-43" style="edgeStyle=orthogonalEdgeStyle;rounded=0;orthogonalLoop=1;jettySize=auto;html=1;entryX=0.599;entryY=1.005;entryDx=0;entryDy=0;entryPerimeter=0;startArrow=classic;startFill=1;endArrow=none;endFill=0;strokeColor=#000000;endSize=9;startSize=9;" edge="1" parent="1" source="iYWgP3UckeU0uiQLs7u8-302" target="1LdOg6mQmbc9WHdVqoS4-530">
                    <mxGeometry relative="1" as="geometry"/>
                </mxCell>
                <mxCell id="iYWgP3UckeU0uiQLs7u8-302" value="&lt;span style=&quot;color: rgb(255 , 255 , 255)&quot;&gt;Pathways&lt;/span&gt;" style="shape=table;html=1;whiteSpace=wrap;startSize=30;container=1;collapsible=0;childLayout=tableLayout;fixedRows=1;rowLines=1;fontStyle=1;align=center;shadow=0;sketch=0;strokeColor=#000000;strokeWidth=1;fillColor=#2a2a2a;gradientColor=none;fontColor=#000000;columnLines=1;resizeLast=1;" parent="1" vertex="1">
                    <mxGeometry x="680" y="90" width="320" height="290" as="geometry"/>
                </mxCell>
                <mxCell id="iYWgP3UckeU0uiQLs7u8-303" value="" style="shape=partialRectangle;html=1;whiteSpace=wrap;collapsible=0;dropTarget=0;pointerEvents=0;fillColor=none;top=0;left=0;bottom=1;right=0;points=[[0,0.5],[1,0.5]];portConstraint=eastwest;" parent="iYWgP3UckeU0uiQLs7u8-302" vertex="1">
                    <mxGeometry y="30" width="320" height="30" as="geometry"/>
                </mxCell>
                <mxCell id="iYWgP3UckeU0uiQLs7u8-304" value="&lt;span style=&quot;color: rgb(0 , 0 , 0) ; font-weight: 700&quot;&gt;PK&lt;/span&gt;" style="shape=partialRectangle;html=1;whiteSpace=wrap;connectable=0;fillColor=none;top=0;left=0;bottom=1;right=0;overflow=hidden;strokeColor=#000000;" parent="iYWgP3UckeU0uiQLs7u8-303" vertex="1">
                    <mxGeometry width="40" height="30" as="geometry"/>
                </mxCell>
                <mxCell id="iYWgP3UckeU0uiQLs7u8-305" value="&lt;span style=&quot;color: rgb(0 , 0 , 0) ; font-weight: 700&quot;&gt;+&amp;nbsp;&lt;/span&gt;&lt;span style=&quot;color: rgb(0 , 0 , 0) ; font-weight: 700&quot;&gt;Pathway-Id&lt;/span&gt;" style="shape=partialRectangle;html=1;whiteSpace=wrap;connectable=0;fillColor=none;top=0;left=0;bottom=1;right=0;align=left;spacingLeft=6;overflow=hidden;strokeColor=#000000;" parent="iYWgP3UckeU0uiQLs7u8-303" vertex="1">
                    <mxGeometry x="40" width="140" height="30" as="geometry"/>
                </mxCell>
                <mxCell id="iYWgP3UckeU0uiQLs7u8-306" value="&lt;font color=&quot;#000000&quot;&gt;&lt;b&gt;Int&lt;/b&gt;&lt;/font&gt;" style="shape=partialRectangle;html=1;whiteSpace=wrap;connectable=0;fillColor=none;top=0;left=0;bottom=1;right=0;align=left;spacingLeft=6;overflow=hidden;strokeColor=#000000;" parent="iYWgP3UckeU0uiQLs7u8-303" vertex="1">
                    <mxGeometry x="180" width="140" height="30" as="geometry"/>
                </mxCell>
                <mxCell id="iYWgP3UckeU0uiQLs7u8-307" value="" style="shape=partialRectangle;html=1;whiteSpace=wrap;collapsible=0;dropTarget=0;pointerEvents=0;fillColor=none;top=0;left=0;bottom=0;right=0;points=[[0,0.5],[1,0.5]];portConstraint=eastwest;fontColor=#000000;" parent="iYWgP3UckeU0uiQLs7u8-302" vertex="1">
                    <mxGeometry y="60" width="320" height="30" as="geometry"/>
                </mxCell>
                <mxCell id="iYWgP3UckeU0uiQLs7u8-308" value="&lt;span style=&quot;font-weight: 700&quot;&gt;FK&lt;/span&gt;" style="shape=partialRectangle;html=1;whiteSpace=wrap;connectable=0;fillColor=none;top=0;left=0;bottom=0;right=0;overflow=hidden;fontColor=#000000;" parent="iYWgP3UckeU0uiQLs7u8-307" vertex="1">
                    <mxGeometry width="40" height="30" as="geometry"/>
                </mxCell>
                <mxCell id="iYWgP3UckeU0uiQLs7u8-309" value="+&amp;nbsp;" style="shape=partialRectangle;html=1;whiteSpace=wrap;connectable=0;fillColor=none;top=0;left=0;bottom=0;right=0;align=left;spacingLeft=6;overflow=hidden;fontColor=#000000;" parent="iYWgP3UckeU0uiQLs7u8-307" vertex="1">
                    <mxGeometry x="40" width="140" height="30" as="geometry"/>
                </mxCell>
                <mxCell id="iYWgP3UckeU0uiQLs7u8-310" value="&lt;b&gt;varchar(50)&lt;/b&gt;" style="shape=partialRectangle;html=1;whiteSpace=wrap;connectable=0;fillColor=none;top=0;left=0;bottom=0;right=0;align=left;spacingLeft=6;overflow=hidden;fontColor=#000000;" parent="iYWgP3UckeU0uiQLs7u8-307" vertex="1">
                    <mxGeometry x="180" width="140" height="30" as="geometry"/>
                </mxCell>
                <mxCell id="iYWgP3UckeU0uiQLs7u8-311" value="" style="shape=partialRectangle;html=1;whiteSpace=wrap;collapsible=0;dropTarget=0;pointerEvents=0;fillColor=none;top=0;left=0;bottom=0;right=0;points=[[0,0.5],[1,0.5]];portConstraint=eastwest;fontColor=#000000;" parent="iYWgP3UckeU0uiQLs7u8-302" vertex="1">
                    <mxGeometry y="90" width="320" height="30" as="geometry"/>
                </mxCell>
                <mxCell id="iYWgP3UckeU0uiQLs7u8-312" value="" style="shape=partialRectangle;html=1;whiteSpace=wrap;connectable=0;fillColor=none;top=0;left=0;bottom=0;right=0;overflow=hidden;fontColor=#000000;" parent="iYWgP3UckeU0uiQLs7u8-311" vertex="1">
                    <mxGeometry width="40" height="30" as="geometry"/>
                </mxCell>
                <mxCell id="iYWgP3UckeU0uiQLs7u8-313" value="-&amp;nbsp;" style="shape=partialRectangle;html=1;whiteSpace=wrap;connectable=0;fillColor=none;top=0;left=0;bottom=0;right=0;align=left;spacingLeft=6;overflow=hidden;fontColor=#000000;" parent="iYWgP3UckeU0uiQLs7u8-311" vertex="1">
                    <mxGeometry x="40" width="140" height="30" as="geometry"/>
                </mxCell>
                <mxCell id="iYWgP3UckeU0uiQLs7u8-314" value="&lt;b&gt;varchar(50)&lt;/b&gt;" style="shape=partialRectangle;html=1;whiteSpace=wrap;connectable=0;fillColor=none;top=0;left=0;bottom=0;right=0;align=left;spacingLeft=6;overflow=hidden;fontColor=#000000;" parent="iYWgP3UckeU0uiQLs7u8-311" vertex="1">
                    <mxGeometry x="180" width="140" height="30" as="geometry"/>
                </mxCell>
                <mxCell id="iYWgP3UckeU0uiQLs7u8-315" value="" style="shape=partialRectangle;html=1;whiteSpace=wrap;collapsible=0;dropTarget=0;pointerEvents=0;fillColor=none;top=0;left=0;bottom=1;right=0;points=[[0,0.5],[1,0.5]];portConstraint=eastwest;" parent="iYWgP3UckeU0uiQLs7u8-302" vertex="1">
                    <mxGeometry y="120" width="320" height="170" as="geometry"/>
                </mxCell>
                <mxCell id="iYWgP3UckeU0uiQLs7u8-316" value="" style="shape=partialRectangle;html=1;whiteSpace=wrap;connectable=0;fillColor=none;top=0;left=0;bottom=1;right=0;overflow=hidden;strokeColor=#000000;" parent="iYWgP3UckeU0uiQLs7u8-315" vertex="1">
                    <mxGeometry width="40" height="170" as="geometry"/>
                </mxCell>
                <mxCell id="iYWgP3UckeU0uiQLs7u8-317" value="&lt;span style=&quot;color: rgb(0 , 0 , 0)&quot;&gt;+&amp;nbsp;&lt;/span&gt;&lt;br style=&quot;padding: 0px ; margin: 0px ; color: rgb(0 , 0 , 0)&quot;&gt;&lt;span style=&quot;color: rgb(0 , 0 , 0)&quot;&gt;+&amp;nbsp;&lt;/span&gt;&lt;br style=&quot;padding: 0px ; margin: 0px ; color: rgb(0 , 0 , 0)&quot;&gt;&lt;span style=&quot;color: rgb(0 , 0 , 0)&quot;&gt;+&amp;nbsp;&lt;/span&gt;&lt;br style=&quot;padding: 0px ; margin: 0px ; color: rgb(0 , 0 , 0)&quot;&gt;&lt;span style=&quot;color: rgb(0 , 0 , 0)&quot;&gt;+&amp;nbsp;&lt;/span&gt;&lt;br style=&quot;padding: 0px ; margin: 0px ; color: rgb(0 , 0 , 0)&quot;&gt;&lt;span style=&quot;color: rgb(0 , 0 , 0)&quot;&gt;+&amp;nbsp;&lt;/span&gt;&lt;br style=&quot;padding: 0px ; margin: 0px ; color: rgb(0 , 0 , 0)&quot;&gt;&lt;span style=&quot;color: rgb(0 , 0 , 0)&quot;&gt;+&amp;nbsp;&lt;/span&gt;&lt;br style=&quot;padding: 0px ; margin: 0px ; color: rgb(0 , 0 , 0)&quot;&gt;&lt;span style=&quot;color: rgb(0 , 0 , 0)&quot;&gt;+&amp;nbsp;&lt;/span&gt;&lt;br style=&quot;padding: 0px ; margin: 0px ; color: rgb(0 , 0 , 0)&quot;&gt;&lt;span style=&quot;color: rgb(0 , 0 , 0)&quot;&gt;+&lt;/span&gt;" style="shape=partialRectangle;html=1;whiteSpace=wrap;connectable=0;fillColor=none;top=0;left=0;bottom=1;right=0;align=left;spacingLeft=6;overflow=hidden;strokeColor=#000000;flipH=1;" parent="iYWgP3UckeU0uiQLs7u8-315" vertex="1">
                    <mxGeometry x="40" width="140" height="170" as="geometry"/>
                </mxCell>
                <mxCell id="iYWgP3UckeU0uiQLs7u8-318" value="&lt;b style=&quot;color: rgb(0 , 0 , 0)&quot;&gt;varchar(50)&lt;br&gt;&lt;/b&gt;&lt;b style=&quot;color: rgb(0 , 0 , 0)&quot;&gt;varchar(50)&lt;br&gt;&lt;/b&gt;&lt;b style=&quot;color: rgb(0 , 0 , 0)&quot;&gt;varchar(50)&lt;br&gt;&lt;/b&gt;&lt;b style=&quot;color: rgb(0 , 0 , 0)&quot;&gt;varchar(50)&lt;br&gt;&lt;/b&gt;&lt;b style=&quot;color: rgb(0 , 0 , 0)&quot;&gt;varchar(50)&lt;br&gt;&lt;/b&gt;&lt;b style=&quot;color: rgb(0 , 0 , 0)&quot;&gt;varchar(50)&lt;br&gt;&lt;/b&gt;&lt;b style=&quot;color: rgb(0 , 0 , 0)&quot;&gt;varchar(50)&lt;br&gt;&lt;/b&gt;&lt;b style=&quot;color: rgb(0 , 0 , 0)&quot;&gt;varchar(50)&lt;/b&gt;&lt;b style=&quot;color: rgb(0 , 0 , 0)&quot;&gt;&lt;br&gt;&lt;/b&gt;" style="shape=partialRectangle;html=1;whiteSpace=wrap;connectable=0;fillColor=none;top=0;left=0;bottom=1;right=0;align=left;spacingLeft=6;overflow=hidden;strokeColor=#000000;flipH=1;" parent="iYWgP3UckeU0uiQLs7u8-315" vertex="1">
                    <mxGeometry x="180" width="140" height="170" as="geometry"/>
                </mxCell>
                <mxCell id="1LdOg6mQmbc9WHdVqoS4-429" value="&lt;font color=&quot;#ffffff&quot;&gt;User&lt;/font&gt;" style="shape=table;html=1;whiteSpace=wrap;startSize=30;container=1;collapsible=0;childLayout=tableLayout;fixedRows=1;rowLines=1;fontStyle=1;align=center;shadow=0;sketch=0;strokeColor=#000000;strokeWidth=1;fillColor=#2a2a2a;gradientColor=none;fontColor=#000000;columnLines=1;resizeLast=1;verticalAlign=top;" parent="1" vertex="1">
                    <mxGeometry x="1350" y="70" width="320" height="270" as="geometry"/>
                </mxCell>
                <mxCell id="1LdOg6mQmbc9WHdVqoS4-430" value="" style="shape=partialRectangle;html=1;whiteSpace=wrap;collapsible=0;dropTarget=0;pointerEvents=0;fillColor=none;top=0;left=0;bottom=1;right=0;points=[[0,0.5],[1,0.5]];portConstraint=eastwest;" parent="1LdOg6mQmbc9WHdVqoS4-429" vertex="1">
                    <mxGeometry y="30" width="320" height="30" as="geometry"/>
                </mxCell>
                <mxCell id="1LdOg6mQmbc9WHdVqoS4-431" value="&lt;span style=&quot;color: rgb(0 , 0 , 0) ; font-weight: 700&quot;&gt;PK&lt;/span&gt;" style="shape=partialRectangle;html=1;whiteSpace=wrap;connectable=0;fillColor=none;top=0;left=0;bottom=1;right=0;overflow=hidden;strokeColor=#000000;" parent="1LdOg6mQmbc9WHdVqoS4-430" vertex="1">
                    <mxGeometry width="40" height="30" as="geometry"/>
                </mxCell>
                <mxCell id="1LdOg6mQmbc9WHdVqoS4-445" value="&lt;font color=&quot;#000000&quot;&gt;&lt;b&gt;+ User-ID&lt;/b&gt;&lt;/font&gt;" style="shape=partialRectangle;html=1;whiteSpace=wrap;connectable=0;fillColor=none;top=0;left=0;bottom=1;right=0;align=left;spacingLeft=6;overflow=hidden;strokeColor=#000000;" parent="1LdOg6mQmbc9WHdVqoS4-430" vertex="1">
                    <mxGeometry x="40" width="140" height="30" as="geometry"/>
                </mxCell>
                <mxCell id="1LdOg6mQmbc9WHdVqoS4-432" value="&lt;font color=&quot;#000000&quot;&gt;&lt;b&gt;Int&lt;/b&gt;&lt;/font&gt;" style="shape=partialRectangle;html=1;whiteSpace=wrap;connectable=0;fillColor=none;top=0;left=0;bottom=1;right=0;align=left;spacingLeft=6;overflow=hidden;strokeColor=#000000;" parent="1LdOg6mQmbc9WHdVqoS4-430" vertex="1">
                    <mxGeometry x="180" width="140" height="30" as="geometry"/>
                </mxCell>
                <mxCell id="1LdOg6mQmbc9WHdVqoS4-433" value="" style="shape=partialRectangle;html=1;whiteSpace=wrap;collapsible=0;dropTarget=0;pointerEvents=0;fillColor=none;top=0;left=0;bottom=0;right=0;points=[[0,0.5],[1,0.5]];portConstraint=eastwest;fontColor=#000000;" parent="1LdOg6mQmbc9WHdVqoS4-429" vertex="1">
                    <mxGeometry y="60" width="320" height="30" as="geometry"/>
                </mxCell>
                <mxCell id="1LdOg6mQmbc9WHdVqoS4-434" value="&lt;span style=&quot;font-weight: 700&quot;&gt;FK&lt;/span&gt;" style="shape=partialRectangle;html=1;whiteSpace=wrap;connectable=0;fillColor=none;top=0;left=0;bottom=0;right=0;overflow=hidden;fontColor=#000000;" parent="1LdOg6mQmbc9WHdVqoS4-433" vertex="1">
                    <mxGeometry width="40" height="30" as="geometry"/>
                </mxCell>
                <mxCell id="1LdOg6mQmbc9WHdVqoS4-446" value="+ Username&lt;div style=&quot;padding: 0px ; margin: 0px&quot;&gt;&lt;br style=&quot;padding: 0px ; margin: 0px&quot;&gt;&lt;/div&gt;" style="shape=partialRectangle;html=1;whiteSpace=wrap;connectable=0;fillColor=none;top=0;left=0;bottom=0;right=0;align=left;spacingLeft=6;overflow=hidden;fontColor=#000000;" parent="1LdOg6mQmbc9WHdVqoS4-433" vertex="1">
                    <mxGeometry x="40" width="140" height="30" as="geometry"/>
                </mxCell>
                <mxCell id="1LdOg6mQmbc9WHdVqoS4-435" value="&lt;b&gt;varchar(50)&lt;/b&gt;" style="shape=partialRectangle;html=1;whiteSpace=wrap;connectable=0;fillColor=none;top=0;left=0;bottom=0;right=0;align=left;spacingLeft=6;overflow=hidden;fontColor=#000000;" parent="1LdOg6mQmbc9WHdVqoS4-433" vertex="1">
                    <mxGeometry x="180" width="140" height="30" as="geometry"/>
                </mxCell>
                <mxCell id="1LdOg6mQmbc9WHdVqoS4-436" value="" style="shape=partialRectangle;html=1;whiteSpace=wrap;collapsible=0;dropTarget=0;pointerEvents=0;fillColor=none;top=0;left=0;bottom=0;right=0;points=[[0,0.5],[1,0.5]];portConstraint=eastwest;fontColor=#000000;" parent="1LdOg6mQmbc9WHdVqoS4-429" vertex="1">
                    <mxGeometry y="90" width="320" height="30" as="geometry"/>
                </mxCell>
                <mxCell id="1LdOg6mQmbc9WHdVqoS4-437" value="" style="shape=partialRectangle;html=1;whiteSpace=wrap;connectable=0;fillColor=none;top=0;left=0;bottom=0;right=0;overflow=hidden;fontColor=#000000;" parent="1LdOg6mQmbc9WHdVqoS4-436" vertex="1">
                    <mxGeometry width="40" height="30" as="geometry"/>
                </mxCell>
                <mxCell id="1LdOg6mQmbc9WHdVqoS4-447" value="- limited to class" style="shape=partialRectangle;html=1;whiteSpace=wrap;connectable=0;fillColor=none;top=0;left=0;bottom=0;right=0;align=left;spacingLeft=6;overflow=hidden;fontColor=#000000;" parent="1LdOg6mQmbc9WHdVqoS4-436" vertex="1">
                    <mxGeometry x="40" width="140" height="30" as="geometry"/>
                </mxCell>
                <mxCell id="1LdOg6mQmbc9WHdVqoS4-438" value="&lt;b&gt;varchar(50)&lt;/b&gt;" style="shape=partialRectangle;html=1;whiteSpace=wrap;connectable=0;fillColor=none;top=0;left=0;bottom=0;right=0;align=left;spacingLeft=6;overflow=hidden;fontColor=#000000;" parent="1LdOg6mQmbc9WHdVqoS4-436" vertex="1">
                    <mxGeometry x="180" width="140" height="30" as="geometry"/>
                </mxCell>
                <mxCell id="1LdOg6mQmbc9WHdVqoS4-442" value="" style="shape=partialRectangle;html=1;whiteSpace=wrap;collapsible=0;dropTarget=0;pointerEvents=0;fillColor=none;top=0;left=0;bottom=1;right=0;points=[[0,0.5],[1,0.5]];portConstraint=eastwest;verticalAlign=top;" parent="1LdOg6mQmbc9WHdVqoS4-429" vertex="1">
                    <mxGeometry y="120" width="320" height="150" as="geometry"/>
                </mxCell>
                <mxCell id="1LdOg6mQmbc9WHdVqoS4-443" value="" style="shape=partialRectangle;html=1;whiteSpace=wrap;connectable=0;fillColor=none;top=0;left=0;bottom=1;right=0;overflow=hidden;strokeColor=#000000;" parent="1LdOg6mQmbc9WHdVqoS4-442" vertex="1">
                    <mxGeometry width="40" height="150" as="geometry"/>
                </mxCell>
                <mxCell id="1LdOg6mQmbc9WHdVqoS4-448" value="&lt;span style=&quot;color: rgb(0 , 0 , 0)&quot;&gt;+ Password&lt;/span&gt;&lt;br style=&quot;padding: 0px ; margin: 0px ; color: rgb(0 , 0 , 0)&quot;&gt;&lt;span style=&quot;color: rgb(0 , 0 , 0)&quot;&gt;+ PasswordFormat&lt;/span&gt;&lt;br style=&quot;padding: 0px ; margin: 0px ; color: rgb(0 , 0 , 0)&quot;&gt;&lt;span style=&quot;color: rgb(0 , 0 , 0)&quot;&gt;+ PasswordQuestion&lt;/span&gt;&lt;br style=&quot;padding: 0px ; margin: 0px ; color: rgb(0 , 0 , 0)&quot;&gt;&lt;span style=&quot;color: rgb(0 , 0 , 0)&quot;&gt;+ PasswordAnswer&lt;/span&gt;&lt;br style=&quot;padding: 0px ; margin: 0px ; color: rgb(0 , 0 , 0)&quot;&gt;&lt;span style=&quot;color: rgb(0 , 0 , 0)&quot;&gt;+ CreationDate&lt;/span&gt;&lt;br style=&quot;padding: 0px ; margin: 0px ; color: rgb(0 , 0 , 0)&quot;&gt;&lt;span style=&quot;color: rgb(0 , 0 , 0)&quot;&gt;+ LastLoginDate&lt;/span&gt;&lt;br style=&quot;padding: 0px ; margin: 0px ; color: rgb(0 , 0 , 0)&quot;&gt;&lt;span style=&quot;color: rgb(0 , 0 , 0)&quot;&gt;+ UserType&lt;/span&gt;&lt;br style=&quot;padding: 0px ; margin: 0px ; color: rgb(0 , 0 , 0)&quot;&gt;&lt;span style=&quot;color: rgb(0 , 0 , 0)&quot;&gt;+ Email&lt;br&gt;+&amp;nbsp;&lt;/span&gt;&lt;span style=&quot;color: rgb(0 , 0 , 0)&quot;&gt;MembershipStatus&lt;/span&gt;&lt;span style=&quot;color: rgb(0 , 0 , 0)&quot;&gt;&lt;br&gt;&lt;/span&gt;" style="shape=partialRectangle;html=1;whiteSpace=wrap;connectable=0;fillColor=none;top=0;left=0;bottom=1;right=0;align=left;spacingLeft=6;overflow=hidden;strokeColor=#000000;flipH=1;verticalAlign=top;" parent="1LdOg6mQmbc9WHdVqoS4-442" vertex="1">
                    <mxGeometry x="40" width="140" height="150" as="geometry"/>
                </mxCell>
                <mxCell id="1LdOg6mQmbc9WHdVqoS4-444" value="&lt;b style=&quot;color: rgb(0 , 0 , 0)&quot;&gt;varchar(50)&lt;br&gt;&lt;/b&gt;&lt;b style=&quot;color: rgb(0 , 0 , 0)&quot;&gt;varchar(50)&lt;br&gt;&lt;/b&gt;&lt;b style=&quot;color: rgb(0 , 0 , 0)&quot;&gt;varchar(50)&lt;br&gt;&lt;/b&gt;&lt;b style=&quot;color: rgb(0 , 0 , 0)&quot;&gt;varchar(50)&lt;br&gt;&lt;/b&gt;&lt;b style=&quot;color: rgb(0 , 0 , 0)&quot;&gt;varchar(50)&lt;br&gt;&lt;/b&gt;&lt;b style=&quot;color: rgb(0 , 0 , 0)&quot;&gt;varchar(50)&lt;br&gt;&lt;/b&gt;&lt;b style=&quot;color: rgb(0 , 0 , 0)&quot;&gt;varchar(50)&lt;br&gt;&lt;/b&gt;&lt;b style=&quot;color: rgb(0 , 0 , 0)&quot;&gt;varchar(50)&lt;br&gt;&lt;/b&gt;&lt;b style=&quot;color: rgb(0 , 0 , 0)&quot;&gt;varchar(50)&lt;/b&gt;&lt;b style=&quot;color: rgb(0 , 0 , 0)&quot;&gt;&lt;br&gt;&lt;/b&gt;&lt;b style=&quot;color: rgb(0 , 0 , 0)&quot;&gt;&lt;br&gt;&lt;/b&gt;" style="shape=partialRectangle;html=1;whiteSpace=wrap;connectable=0;fillColor=none;top=0;left=0;bottom=1;right=0;align=left;spacingLeft=6;overflow=hidden;strokeColor=#000000;flipH=1;verticalAlign=top;" parent="1LdOg6mQmbc9WHdVqoS4-442" vertex="1">
                    <mxGeometry x="180" width="140" height="150" as="geometry"/>
                </mxCell>
                <mxCell id="8AqKABZhVZUc1JRrgyvb-323" value="&lt;span style=&quot;color: rgb(255 , 255 , 255)&quot;&gt;Membership&lt;/span&gt;" style="shape=table;html=1;whiteSpace=wrap;startSize=30;container=1;collapsible=0;childLayout=tableLayout;fixedRows=1;rowLines=1;fontStyle=1;align=center;shadow=0;sketch=0;strokeColor=#000000;strokeWidth=1;fillColor=#2a2a2a;gradientColor=none;fontColor=#000000;columnLines=1;resizeLast=1;" parent="1" vertex="1">
                    <mxGeometry x="1340" y="400" width="320" height="280" as="geometry"/>
                </mxCell>
                <mxCell id="8AqKABZhVZUc1JRrgyvb-324" value="" style="shape=partialRectangle;html=1;whiteSpace=wrap;collapsible=0;dropTarget=0;pointerEvents=0;fillColor=none;top=0;left=0;bottom=1;right=0;points=[[0,0.5],[1,0.5]];portConstraint=eastwest;" parent="8AqKABZhVZUc1JRrgyvb-323" vertex="1">
                    <mxGeometry y="30" width="320" height="20" as="geometry"/>
                </mxCell>
                <mxCell id="8AqKABZhVZUc1JRrgyvb-325" value="&lt;span style=&quot;color: rgb(0 , 0 , 0) ; font-weight: 700&quot;&gt;FK&lt;/span&gt;" style="shape=partialRectangle;html=1;whiteSpace=wrap;connectable=0;fillColor=none;top=0;left=0;bottom=1;right=0;overflow=hidden;strokeColor=#000000;" parent="8AqKABZhVZUc1JRrgyvb-324" vertex="1">
                    <mxGeometry width="40" height="20" as="geometry"/>
                </mxCell>
                <mxCell id="8AqKABZhVZUc1JRrgyvb-326" value="&lt;span style=&quot;color: rgb(0 , 0 , 0) ; font-weight: 700&quot;&gt;+ MemberType&lt;/span&gt;" style="shape=partialRectangle;html=1;whiteSpace=wrap;connectable=0;fillColor=none;top=0;left=0;bottom=1;right=0;align=left;spacingLeft=6;overflow=hidden;strokeColor=#000000;" parent="8AqKABZhVZUc1JRrgyvb-324" vertex="1">
                    <mxGeometry x="40" width="140" height="20" as="geometry"/>
                </mxCell>
                <mxCell id="8AqKABZhVZUc1JRrgyvb-327" value="&lt;font color=&quot;#000000&quot;&gt;&lt;b&gt;Int&lt;/b&gt;&lt;/font&gt;" style="shape=partialRectangle;html=1;whiteSpace=wrap;connectable=0;fillColor=none;top=0;left=0;bottom=1;right=0;align=left;spacingLeft=6;overflow=hidden;strokeColor=#000000;" parent="8AqKABZhVZUc1JRrgyvb-324" vertex="1">
                    <mxGeometry x="180" width="140" height="20" as="geometry"/>
                </mxCell>
                <mxCell id="8AqKABZhVZUc1JRrgyvb-328" value="" style="shape=partialRectangle;html=1;whiteSpace=wrap;collapsible=0;dropTarget=0;pointerEvents=0;fillColor=none;top=0;left=0;bottom=0;right=0;points=[[0,0.5],[1,0.5]];portConstraint=eastwest;fontColor=#000000;" parent="8AqKABZhVZUc1JRrgyvb-323" vertex="1">
                    <mxGeometry y="50" width="320" height="30" as="geometry"/>
                </mxCell>
                <mxCell id="8AqKABZhVZUc1JRrgyvb-329" value="&lt;span style=&quot;font-weight: 700&quot;&gt;FK&lt;/span&gt;" style="shape=partialRectangle;html=1;whiteSpace=wrap;connectable=0;fillColor=none;top=0;left=0;bottom=0;right=0;overflow=hidden;fontColor=#000000;" parent="8AqKABZhVZUc1JRrgyvb-328" vertex="1">
                    <mxGeometry width="40" height="30" as="geometry"/>
                </mxCell>
                <mxCell id="8AqKABZhVZUc1JRrgyvb-330" value="+ MembershipStatus" style="shape=partialRectangle;html=1;whiteSpace=wrap;connectable=0;fillColor=none;top=0;left=0;bottom=0;right=0;align=left;spacingLeft=6;overflow=hidden;fontColor=#000000;" parent="8AqKABZhVZUc1JRrgyvb-328" vertex="1">
                    <mxGeometry x="40" width="140" height="30" as="geometry"/>
                </mxCell>
                <mxCell id="8AqKABZhVZUc1JRrgyvb-331" value="&lt;b&gt;varchar(50)&lt;/b&gt;" style="shape=partialRectangle;html=1;whiteSpace=wrap;connectable=0;fillColor=none;top=0;left=0;bottom=0;right=0;align=left;spacingLeft=6;overflow=hidden;fontColor=#000000;" parent="8AqKABZhVZUc1JRrgyvb-328" vertex="1">
                    <mxGeometry x="180" width="140" height="30" as="geometry"/>
                </mxCell>
                <mxCell id="8AqKABZhVZUc1JRrgyvb-332" value="" style="shape=partialRectangle;html=1;whiteSpace=wrap;collapsible=0;dropTarget=0;pointerEvents=0;fillColor=none;top=0;left=0;bottom=0;right=0;points=[[0,0.5],[1,0.5]];portConstraint=eastwest;fontColor=#000000;" parent="8AqKABZhVZUc1JRrgyvb-323" vertex="1">
                    <mxGeometry y="80" width="320" height="30" as="geometry"/>
                </mxCell>
                <mxCell id="8AqKABZhVZUc1JRrgyvb-333" value="" style="shape=partialRectangle;html=1;whiteSpace=wrap;connectable=0;fillColor=none;top=0;left=0;bottom=0;right=0;overflow=hidden;fontColor=#000000;" parent="8AqKABZhVZUc1JRrgyvb-332" vertex="1">
                    <mxGeometry width="40" height="30" as="geometry"/>
                </mxCell>
                <mxCell id="8AqKABZhVZUc1JRrgyvb-334" value="-&amp;nbsp;" style="shape=partialRectangle;html=1;whiteSpace=wrap;connectable=0;fillColor=none;top=0;left=0;bottom=0;right=0;align=left;spacingLeft=6;overflow=hidden;fontColor=#000000;" parent="8AqKABZhVZUc1JRrgyvb-332" vertex="1">
                    <mxGeometry x="40" width="140" height="30" as="geometry"/>
                </mxCell>
                <mxCell id="8AqKABZhVZUc1JRrgyvb-335" value="&lt;b&gt;varchar(50)&lt;/b&gt;" style="shape=partialRectangle;html=1;whiteSpace=wrap;connectable=0;fillColor=none;top=0;left=0;bottom=0;right=0;align=left;spacingLeft=6;overflow=hidden;fontColor=#000000;" parent="8AqKABZhVZUc1JRrgyvb-332" vertex="1">
                    <mxGeometry x="180" width="140" height="30" as="geometry"/>
                </mxCell>
                <mxCell id="8AqKABZhVZUc1JRrgyvb-336" value="" style="shape=partialRectangle;html=1;whiteSpace=wrap;collapsible=0;dropTarget=0;pointerEvents=0;fillColor=none;top=0;left=0;bottom=1;right=0;points=[[0,0.5],[1,0.5]];portConstraint=eastwest;" parent="8AqKABZhVZUc1JRrgyvb-323" vertex="1">
                    <mxGeometry y="110" width="320" height="170" as="geometry"/>
                </mxCell>
                <mxCell id="8AqKABZhVZUc1JRrgyvb-337" value="" style="shape=partialRectangle;html=1;whiteSpace=wrap;connectable=0;fillColor=none;top=0;left=0;bottom=1;right=0;overflow=hidden;strokeColor=#000000;" parent="8AqKABZhVZUc1JRrgyvb-336" vertex="1">
                    <mxGeometry width="40" height="170" as="geometry"/>
                </mxCell>
                <mxCell id="8AqKABZhVZUc1JRrgyvb-338" value="&lt;span style=&quot;color: rgb(0 , 0 , 0)&quot;&gt;+&amp;nbsp;&lt;/span&gt;&lt;br style=&quot;padding: 0px ; margin: 0px ; color: rgb(0 , 0 , 0)&quot;&gt;&lt;span style=&quot;color: rgb(0 , 0 , 0)&quot;&gt;+&amp;nbsp;&lt;/span&gt;&lt;br style=&quot;padding: 0px ; margin: 0px ; color: rgb(0 , 0 , 0)&quot;&gt;&lt;span style=&quot;color: rgb(0 , 0 , 0)&quot;&gt;+&amp;nbsp;&lt;/span&gt;&lt;br style=&quot;padding: 0px ; margin: 0px ; color: rgb(0 , 0 , 0)&quot;&gt;&lt;span style=&quot;color: rgb(0 , 0 , 0)&quot;&gt;+&amp;nbsp;&lt;/span&gt;&lt;br style=&quot;padding: 0px ; margin: 0px ; color: rgb(0 , 0 , 0)&quot;&gt;&lt;span style=&quot;color: rgb(0 , 0 , 0)&quot;&gt;+&amp;nbsp;&lt;/span&gt;&lt;br style=&quot;padding: 0px ; margin: 0px ; color: rgb(0 , 0 , 0)&quot;&gt;&lt;span style=&quot;color: rgb(0 , 0 , 0)&quot;&gt;+&amp;nbsp;&lt;/span&gt;&lt;br style=&quot;padding: 0px ; margin: 0px ; color: rgb(0 , 0 , 0)&quot;&gt;&lt;span style=&quot;color: rgb(0 , 0 , 0)&quot;&gt;+&amp;nbsp;&lt;/span&gt;&lt;br style=&quot;padding: 0px ; margin: 0px ; color: rgb(0 , 0 , 0)&quot;&gt;&lt;span style=&quot;color: rgb(0 , 0 , 0)&quot;&gt;+&lt;/span&gt;" style="shape=partialRectangle;html=1;whiteSpace=wrap;connectable=0;fillColor=none;top=0;left=0;bottom=1;right=0;align=left;spacingLeft=6;overflow=hidden;strokeColor=#000000;flipH=1;" parent="8AqKABZhVZUc1JRrgyvb-336" vertex="1">
                    <mxGeometry x="40" width="140" height="170" as="geometry"/>
                </mxCell>
                <mxCell id="8AqKABZhVZUc1JRrgyvb-339" value="&lt;b style=&quot;color: rgb(0 , 0 , 0)&quot;&gt;varchar(50)&lt;br&gt;&lt;/b&gt;&lt;b style=&quot;color: rgb(0 , 0 , 0)&quot;&gt;varchar(50)&lt;br&gt;&lt;/b&gt;&lt;b style=&quot;color: rgb(0 , 0 , 0)&quot;&gt;varchar(50)&lt;br&gt;&lt;/b&gt;&lt;b style=&quot;color: rgb(0 , 0 , 0)&quot;&gt;varchar(50)&lt;br&gt;&lt;/b&gt;&lt;b style=&quot;color: rgb(0 , 0 , 0)&quot;&gt;varchar(50)&lt;br&gt;&lt;/b&gt;&lt;b style=&quot;color: rgb(0 , 0 , 0)&quot;&gt;varchar(50)&lt;br&gt;&lt;/b&gt;&lt;b style=&quot;color: rgb(0 , 0 , 0)&quot;&gt;varchar(50)&lt;br&gt;&lt;/b&gt;&lt;b style=&quot;color: rgb(0 , 0 , 0)&quot;&gt;varchar(50)&lt;/b&gt;&lt;b style=&quot;color: rgb(0 , 0 , 0)&quot;&gt;&lt;br&gt;&lt;/b&gt;" style="shape=partialRectangle;html=1;whiteSpace=wrap;connectable=0;fillColor=none;top=0;left=0;bottom=1;right=0;align=left;spacingLeft=6;overflow=hidden;strokeColor=#000000;flipH=1;" parent="8AqKABZhVZUc1JRrgyvb-336" vertex="1">
                    <mxGeometry x="180" width="140" height="170" as="geometry"/>
                </mxCell>
                <mxCell id="1LdOg6mQmbc9WHdVqoS4-517" value="&lt;span style=&quot;color: rgb(255 , 255 , 255)&quot;&gt;Mentor&lt;/span&gt;" style="shape=table;html=1;whiteSpace=wrap;startSize=30;container=1;collapsible=0;childLayout=tableLayout;fixedRows=1;rowLines=1;fontStyle=1;align=center;shadow=0;sketch=0;strokeColor=#000000;strokeWidth=1;fillColor=#2a2a2a;gradientColor=none;fontColor=#000000;columnLines=1;resizeLast=1;" parent="1" vertex="1">
                    <mxGeometry x="890" y="460" width="320" height="340.00000000000045" as="geometry"/>
                </mxCell>
                <mxCell id="1LdOg6mQmbc9WHdVqoS4-518" value="" style="shape=partialRectangle;html=1;whiteSpace=wrap;collapsible=0;dropTarget=0;pointerEvents=0;fillColor=none;top=0;left=0;bottom=1;right=0;points=[[0,0.5],[1,0.5]];portConstraint=eastwest;" parent="1LdOg6mQmbc9WHdVqoS4-517" vertex="1">
                    <mxGeometry y="30" width="320" height="30" as="geometry"/>
                </mxCell>
                <mxCell id="1LdOg6mQmbc9WHdVqoS4-519" value="&lt;span style=&quot;color: rgb(0 , 0 , 0) ; font-weight: 700&quot;&gt;PK&lt;/span&gt;" style="shape=partialRectangle;html=1;whiteSpace=wrap;connectable=0;fillColor=none;top=0;left=0;bottom=1;right=0;overflow=hidden;strokeColor=#000000;" parent="1LdOg6mQmbc9WHdVqoS4-518" vertex="1">
                    <mxGeometry width="50" height="30" as="geometry"/>
                </mxCell>
                <mxCell id="1LdOg6mQmbc9WHdVqoS4-520" value="&lt;span style=&quot;color: rgb(0 , 0 , 0) ; font-weight: 700&quot;&gt;+ MentorsUsername&lt;/span&gt;" style="shape=partialRectangle;html=1;whiteSpace=wrap;connectable=0;fillColor=none;top=0;left=0;bottom=1;right=0;align=left;spacingLeft=6;overflow=hidden;strokeColor=#000000;" parent="1LdOg6mQmbc9WHdVqoS4-518" vertex="1">
                    <mxGeometry x="50" width="120" height="30" as="geometry"/>
                </mxCell>
                <mxCell id="1LdOg6mQmbc9WHdVqoS4-521" value="&lt;font color=&quot;#000000&quot;&gt;&lt;b&gt;Int&lt;/b&gt;&lt;/font&gt;" style="shape=partialRectangle;html=1;whiteSpace=wrap;connectable=0;fillColor=none;top=0;left=0;bottom=1;right=0;align=left;spacingLeft=6;overflow=hidden;strokeColor=#000000;" parent="1LdOg6mQmbc9WHdVqoS4-518" vertex="1">
                    <mxGeometry x="170" width="150" height="30" as="geometry"/>
                </mxCell>
                <mxCell id="1LdOg6mQmbc9WHdVqoS4-522" value="" style="shape=partialRectangle;html=1;whiteSpace=wrap;collapsible=0;dropTarget=0;pointerEvents=0;fillColor=none;top=0;left=0;bottom=0;right=0;points=[[0,0.5],[1,0.5]];portConstraint=eastwest;fontColor=#000000;" parent="1LdOg6mQmbc9WHdVqoS4-517" vertex="1">
                    <mxGeometry y="60" width="320" height="30" as="geometry"/>
                </mxCell>
                <mxCell id="1LdOg6mQmbc9WHdVqoS4-523" value="&lt;span style=&quot;font-weight: 700&quot;&gt;FK&lt;/span&gt;" style="shape=partialRectangle;html=1;whiteSpace=wrap;connectable=0;fillColor=none;top=0;left=0;bottom=0;right=0;overflow=hidden;fontColor=#000000;" parent="1LdOg6mQmbc9WHdVqoS4-522" vertex="1">
                    <mxGeometry width="50" height="30" as="geometry"/>
                </mxCell>
                <mxCell id="1LdOg6mQmbc9WHdVqoS4-524" value="&lt;span style=&quot;font-weight: 700&quot;&gt;+ MemberType&lt;/span&gt;" style="shape=partialRectangle;html=1;whiteSpace=wrap;connectable=0;fillColor=none;top=0;left=0;bottom=0;right=0;align=left;spacingLeft=6;overflow=hidden;fontColor=#000000;" parent="1LdOg6mQmbc9WHdVqoS4-522" vertex="1">
                    <mxGeometry x="50" width="120" height="30" as="geometry"/>
                </mxCell>
                <mxCell id="1LdOg6mQmbc9WHdVqoS4-525" value="&lt;b&gt;varchar(50)&lt;/b&gt;" style="shape=partialRectangle;html=1;whiteSpace=wrap;connectable=0;fillColor=none;top=0;left=0;bottom=0;right=0;align=left;spacingLeft=6;overflow=hidden;fontColor=#000000;" parent="1LdOg6mQmbc9WHdVqoS4-522" vertex="1">
                    <mxGeometry x="170" width="150" height="30" as="geometry"/>
                </mxCell>
                <mxCell id="1LdOg6mQmbc9WHdVqoS4-526" value="" style="shape=partialRectangle;html=1;whiteSpace=wrap;collapsible=0;dropTarget=0;pointerEvents=0;fillColor=none;top=0;left=0;bottom=0;right=0;points=[[0,0.5],[1,0.5]];portConstraint=eastwest;fontColor=#000000;" parent="1LdOg6mQmbc9WHdVqoS4-517" vertex="1">
                    <mxGeometry y="90" width="320" height="20" as="geometry"/>
                </mxCell>
                <mxCell id="1LdOg6mQmbc9WHdVqoS4-527" value="&lt;b&gt;FK&lt;/b&gt;" style="shape=partialRectangle;html=1;whiteSpace=wrap;connectable=0;fillColor=none;top=0;left=0;bottom=0;right=0;overflow=hidden;fontColor=#000000;" parent="1LdOg6mQmbc9WHdVqoS4-526" vertex="1">
                    <mxGeometry width="50" height="20" as="geometry"/>
                </mxCell>
                <mxCell id="1LdOg6mQmbc9WHdVqoS4-528" value="&lt;b&gt;&lt;span&gt;+&amp;nbsp;&lt;/span&gt;&lt;span&gt;Match-Id&lt;/span&gt;&lt;/b&gt;" style="shape=partialRectangle;html=1;whiteSpace=wrap;connectable=0;fillColor=none;top=0;left=0;bottom=0;right=0;align=left;spacingLeft=6;overflow=hidden;fontColor=#000000;" parent="1LdOg6mQmbc9WHdVqoS4-526" vertex="1">
                    <mxGeometry x="50" width="120" height="20" as="geometry"/>
                </mxCell>
                <mxCell id="1LdOg6mQmbc9WHdVqoS4-529" value="&lt;b&gt;varchar(50)&lt;/b&gt;" style="shape=partialRectangle;html=1;whiteSpace=wrap;connectable=0;fillColor=none;top=0;left=0;bottom=0;right=0;align=left;spacingLeft=6;overflow=hidden;fontColor=#000000;" parent="1LdOg6mQmbc9WHdVqoS4-526" vertex="1">
                    <mxGeometry x="170" width="150" height="20" as="geometry"/>
                </mxCell>
                <mxCell id="4LwVluVdOsAo0shiaIFr-1" value="" style="shape=partialRectangle;html=1;whiteSpace=wrap;collapsible=0;dropTarget=0;pointerEvents=0;fillColor=none;top=0;left=0;bottom=0;right=0;points=[[0,0.5],[1,0.5]];portConstraint=eastwest;fontColor=#000000;" vertex="1" parent="1LdOg6mQmbc9WHdVqoS4-517">
                    <mxGeometry y="110" width="320" height="30" as="geometry"/>
                </mxCell>
                <mxCell id="4LwVluVdOsAo0shiaIFr-2" value="" style="shape=partialRectangle;html=1;whiteSpace=wrap;connectable=0;fillColor=none;top=0;left=0;bottom=0;right=0;overflow=hidden;fontColor=#000000;" vertex="1" parent="4LwVluVdOsAo0shiaIFr-1">
                    <mxGeometry width="50" height="30" as="geometry"/>
                </mxCell>
                <mxCell id="4LwVluVdOsAo0shiaIFr-3" value="-" style="shape=partialRectangle;html=1;whiteSpace=wrap;connectable=0;fillColor=none;top=0;left=0;bottom=0;right=0;align=left;spacingLeft=6;overflow=hidden;fontColor=#000000;" vertex="1" parent="4LwVluVdOsAo0shiaIFr-1">
                    <mxGeometry x="50" width="120" height="30" as="geometry"/>
                </mxCell>
                <mxCell id="4LwVluVdOsAo0shiaIFr-4" value="" style="shape=partialRectangle;html=1;whiteSpace=wrap;connectable=0;fillColor=none;top=0;left=0;bottom=0;right=0;align=left;spacingLeft=6;overflow=hidden;fontColor=#000000;" vertex="1" parent="4LwVluVdOsAo0shiaIFr-1">
                    <mxGeometry x="170" width="150" height="30" as="geometry"/>
                </mxCell>
                <mxCell id="1LdOg6mQmbc9WHdVqoS4-530" value="" style="shape=partialRectangle;html=1;whiteSpace=wrap;collapsible=0;dropTarget=0;pointerEvents=0;fillColor=none;top=0;left=0;bottom=1;right=0;points=[[0,0.5],[1,0.5]];portConstraint=eastwest;" parent="1LdOg6mQmbc9WHdVqoS4-517" vertex="1">
                    <mxGeometry y="140" width="320" height="200" as="geometry"/>
                </mxCell>
                <mxCell id="1LdOg6mQmbc9WHdVqoS4-531" value="" style="shape=partialRectangle;html=1;whiteSpace=wrap;connectable=0;fillColor=none;top=0;left=0;bottom=1;right=0;overflow=hidden;strokeColor=#000000;" parent="1LdOg6mQmbc9WHdVqoS4-530" vertex="1">
                    <mxGeometry width="50" height="200" as="geometry"/>
                </mxCell>
                <mxCell id="1LdOg6mQmbc9WHdVqoS4-532" value="&lt;br style=&quot;padding: 0px ; margin: 0px ; color: rgb(0 , 0 , 0)&quot;&gt;&lt;span style=&quot;color: rgb(0 , 0 , 0)&quot;&gt;+&amp;nbsp;&lt;/span&gt;&lt;br style=&quot;padding: 0px ; margin: 0px ; color: rgb(0 , 0 , 0)&quot;&gt;&lt;span style=&quot;color: rgb(0 , 0 , 0)&quot;&gt;+&amp;nbsp;&lt;/span&gt;&lt;br style=&quot;padding: 0px ; margin: 0px ; color: rgb(0 , 0 , 0)&quot;&gt;&lt;span style=&quot;color: rgb(0 , 0 , 0)&quot;&gt;+&amp;nbsp;&lt;/span&gt;&lt;br style=&quot;padding: 0px ; margin: 0px ; color: rgb(0 , 0 , 0)&quot;&gt;&lt;span style=&quot;color: rgb(0 , 0 , 0)&quot;&gt;+&amp;nbsp;&lt;/span&gt;&lt;br style=&quot;padding: 0px ; margin: 0px ; color: rgb(0 , 0 , 0)&quot;&gt;&lt;span style=&quot;color: rgb(0 , 0 , 0)&quot;&gt;+&amp;nbsp;&lt;/span&gt;&lt;br style=&quot;padding: 0px ; margin: 0px ; color: rgb(0 , 0 , 0)&quot;&gt;&lt;span style=&quot;color: rgb(0 , 0 , 0)&quot;&gt;+&amp;nbsp;&lt;/span&gt;&lt;br style=&quot;padding: 0px ; margin: 0px ; color: rgb(0 , 0 , 0)&quot;&gt;&lt;span style=&quot;color: rgb(0 , 0 , 0)&quot;&gt;+&lt;/span&gt;" style="shape=partialRectangle;html=1;whiteSpace=wrap;connectable=0;fillColor=none;top=0;left=0;bottom=1;right=0;align=left;spacingLeft=6;overflow=hidden;strokeColor=#000000;flipH=1;" parent="1LdOg6mQmbc9WHdVqoS4-530" vertex="1">
                    <mxGeometry x="50" width="120" height="200" as="geometry"/>
                </mxCell>
                <mxCell id="1LdOg6mQmbc9WHdVqoS4-533" value="&lt;b style=&quot;color: rgb(0 , 0 , 0)&quot;&gt;varchar(50)&lt;br&gt;&lt;/b&gt;&lt;b style=&quot;color: rgb(0 , 0 , 0)&quot;&gt;varchar(50)&lt;br&gt;&lt;/b&gt;&lt;b style=&quot;color: rgb(0 , 0 , 0)&quot;&gt;varchar(50)&lt;br&gt;&lt;/b&gt;&lt;b style=&quot;color: rgb(0 , 0 , 0)&quot;&gt;varchar(50)&lt;br&gt;&lt;/b&gt;&lt;b style=&quot;color: rgb(0 , 0 , 0)&quot;&gt;varchar(50)&lt;br&gt;&lt;/b&gt;&lt;b style=&quot;color: rgb(0 , 0 , 0)&quot;&gt;varchar(50)&lt;br&gt;&lt;/b&gt;&lt;b style=&quot;color: rgb(0 , 0 , 0)&quot;&gt;varchar(50)&lt;br&gt;&lt;/b&gt;&lt;b style=&quot;color: rgb(0 , 0 , 0)&quot;&gt;varchar(50)&lt;/b&gt;&lt;b style=&quot;color: rgb(0 , 0 , 0)&quot;&gt;&lt;br&gt;&lt;/b&gt;" style="shape=partialRectangle;html=1;whiteSpace=wrap;connectable=0;fillColor=none;top=0;left=0;bottom=1;right=0;align=left;spacingLeft=6;overflow=hidden;strokeColor=#000000;flipH=1;" parent="1LdOg6mQmbc9WHdVqoS4-530" vertex="1">
                    <mxGeometry x="170" width="150" height="200" as="geometry"/>
                </mxCell>
                <mxCell id="4LwVluVdOsAo0shiaIFr-21" value="&lt;span style=&quot;color: rgb(255 , 255 , 255)&quot;&gt;Mentees&lt;/span&gt;" style="shape=table;html=1;whiteSpace=wrap;startSize=30;container=1;collapsible=0;childLayout=tableLayout;fixedRows=1;rowLines=1;fontStyle=1;align=center;shadow=0;sketch=0;strokeColor=#000000;strokeWidth=1;fillColor=#2a2a2a;gradientColor=none;fontColor=#000000;columnLines=1;resizeLast=1;" vertex="1" parent="1">
                    <mxGeometry x="1850" y="480" width="330" height="340.00000000000045" as="geometry"/>
                </mxCell>
                <mxCell id="4LwVluVdOsAo0shiaIFr-22" value="" style="shape=partialRectangle;html=1;whiteSpace=wrap;collapsible=0;dropTarget=0;pointerEvents=0;fillColor=none;top=0;left=0;bottom=1;right=0;points=[[0,0.5],[1,0.5]];portConstraint=eastwest;" vertex="1" parent="4LwVluVdOsAo0shiaIFr-21">
                    <mxGeometry y="30" width="330" height="30" as="geometry"/>
                </mxCell>
                <mxCell id="4LwVluVdOsAo0shiaIFr-23" value="&lt;span style=&quot;color: rgb(0 , 0 , 0) ; font-weight: 700&quot;&gt;PK&lt;/span&gt;" style="shape=partialRectangle;html=1;whiteSpace=wrap;connectable=0;fillColor=none;top=0;left=0;bottom=1;right=0;overflow=hidden;strokeColor=#000000;" vertex="1" parent="4LwVluVdOsAo0shiaIFr-22">
                    <mxGeometry width="50" height="30" as="geometry"/>
                </mxCell>
                <mxCell id="4LwVluVdOsAo0shiaIFr-24" value="&lt;span style=&quot;color: rgb(0 , 0 , 0) ; font-weight: 700&quot;&gt;+ MenteesUsername&lt;/span&gt;" style="shape=partialRectangle;html=1;whiteSpace=wrap;connectable=0;fillColor=none;top=0;left=0;bottom=1;right=0;align=left;spacingLeft=6;overflow=hidden;strokeColor=#000000;" vertex="1" parent="4LwVluVdOsAo0shiaIFr-22">
                    <mxGeometry x="50" width="140" height="30" as="geometry"/>
                </mxCell>
                <mxCell id="4LwVluVdOsAo0shiaIFr-25" value="&lt;font color=&quot;#000000&quot;&gt;&lt;b&gt;Int&lt;/b&gt;&lt;/font&gt;" style="shape=partialRectangle;html=1;whiteSpace=wrap;connectable=0;fillColor=none;top=0;left=0;bottom=1;right=0;align=left;spacingLeft=6;overflow=hidden;strokeColor=#000000;" vertex="1" parent="4LwVluVdOsAo0shiaIFr-22">
                    <mxGeometry x="190" width="140" height="30" as="geometry"/>
                </mxCell>
                <mxCell id="4LwVluVdOsAo0shiaIFr-26" value="" style="shape=partialRectangle;html=1;whiteSpace=wrap;collapsible=0;dropTarget=0;pointerEvents=0;fillColor=none;top=0;left=0;bottom=0;right=0;points=[[0,0.5],[1,0.5]];portConstraint=eastwest;fontColor=#000000;" vertex="1" parent="4LwVluVdOsAo0shiaIFr-21">
                    <mxGeometry y="60" width="330" height="30" as="geometry"/>
                </mxCell>
                <mxCell id="4LwVluVdOsAo0shiaIFr-27" value="&lt;span style=&quot;font-weight: 700&quot;&gt;FK&lt;/span&gt;" style="shape=partialRectangle;html=1;whiteSpace=wrap;connectable=0;fillColor=none;top=0;left=0;bottom=0;right=0;overflow=hidden;fontColor=#000000;" vertex="1" parent="4LwVluVdOsAo0shiaIFr-26">
                    <mxGeometry width="50" height="30" as="geometry"/>
                </mxCell>
                <mxCell id="4LwVluVdOsAo0shiaIFr-28" value="&lt;span style=&quot;font-weight: 700&quot;&gt;+ MemberType&lt;/span&gt;" style="shape=partialRectangle;html=1;whiteSpace=wrap;connectable=0;fillColor=none;top=0;left=0;bottom=0;right=0;align=left;spacingLeft=6;overflow=hidden;fontColor=#000000;" vertex="1" parent="4LwVluVdOsAo0shiaIFr-26">
                    <mxGeometry x="50" width="140" height="30" as="geometry"/>
                </mxCell>
                <mxCell id="4LwVluVdOsAo0shiaIFr-29" value="&lt;b&gt;varchar(50)&lt;/b&gt;" style="shape=partialRectangle;html=1;whiteSpace=wrap;connectable=0;fillColor=none;top=0;left=0;bottom=0;right=0;align=left;spacingLeft=6;overflow=hidden;fontColor=#000000;" vertex="1" parent="4LwVluVdOsAo0shiaIFr-26">
                    <mxGeometry x="190" width="140" height="30" as="geometry"/>
                </mxCell>
                <mxCell id="4LwVluVdOsAo0shiaIFr-30" value="" style="shape=partialRectangle;html=1;whiteSpace=wrap;collapsible=0;dropTarget=0;pointerEvents=0;fillColor=none;top=0;left=0;bottom=0;right=0;points=[[0,0.5],[1,0.5]];portConstraint=eastwest;fontColor=#000000;" vertex="1" parent="4LwVluVdOsAo0shiaIFr-21">
                    <mxGeometry y="90" width="330" height="20" as="geometry"/>
                </mxCell>
                <mxCell id="4LwVluVdOsAo0shiaIFr-31" value="&lt;b&gt;FK&lt;/b&gt;" style="shape=partialRectangle;html=1;whiteSpace=wrap;connectable=0;fillColor=none;top=0;left=0;bottom=0;right=0;overflow=hidden;fontColor=#000000;" vertex="1" parent="4LwVluVdOsAo0shiaIFr-30">
                    <mxGeometry width="50" height="20" as="geometry"/>
                </mxCell>
                <mxCell id="4LwVluVdOsAo0shiaIFr-32" value="&lt;b&gt;&lt;span&gt;+&amp;nbsp;&lt;/span&gt;&lt;span&gt;Match-Id&lt;/span&gt;&lt;/b&gt;" style="shape=partialRectangle;html=1;whiteSpace=wrap;connectable=0;fillColor=none;top=0;left=0;bottom=0;right=0;align=left;spacingLeft=6;overflow=hidden;fontColor=#000000;" vertex="1" parent="4LwVluVdOsAo0shiaIFr-30">
                    <mxGeometry x="50" width="140" height="20" as="geometry"/>
                </mxCell>
                <mxCell id="4LwVluVdOsAo0shiaIFr-33" value="&lt;b&gt;varchar(50)&lt;/b&gt;" style="shape=partialRectangle;html=1;whiteSpace=wrap;connectable=0;fillColor=none;top=0;left=0;bottom=0;right=0;align=left;spacingLeft=6;overflow=hidden;fontColor=#000000;" vertex="1" parent="4LwVluVdOsAo0shiaIFr-30">
                    <mxGeometry x="190" width="140" height="20" as="geometry"/>
                </mxCell>
                <mxCell id="4LwVluVdOsAo0shiaIFr-34" value="" style="shape=partialRectangle;html=1;whiteSpace=wrap;collapsible=0;dropTarget=0;pointerEvents=0;fillColor=none;top=0;left=0;bottom=0;right=0;points=[[0,0.5],[1,0.5]];portConstraint=eastwest;fontColor=#000000;" vertex="1" parent="4LwVluVdOsAo0shiaIFr-21">
                    <mxGeometry y="110" width="330" height="30" as="geometry"/>
                </mxCell>
                <mxCell id="4LwVluVdOsAo0shiaIFr-35" value="" style="shape=partialRectangle;html=1;whiteSpace=wrap;connectable=0;fillColor=none;top=0;left=0;bottom=0;right=0;overflow=hidden;fontColor=#000000;" vertex="1" parent="4LwVluVdOsAo0shiaIFr-34">
                    <mxGeometry width="50" height="30" as="geometry"/>
                </mxCell>
                <mxCell id="4LwVluVdOsAo0shiaIFr-36" value="-" style="shape=partialRectangle;html=1;whiteSpace=wrap;connectable=0;fillColor=none;top=0;left=0;bottom=0;right=0;align=left;spacingLeft=6;overflow=hidden;fontColor=#000000;" vertex="1" parent="4LwVluVdOsAo0shiaIFr-34">
                    <mxGeometry x="50" width="140" height="30" as="geometry"/>
                </mxCell>
                <mxCell id="4LwVluVdOsAo0shiaIFr-37" value="" style="shape=partialRectangle;html=1;whiteSpace=wrap;connectable=0;fillColor=none;top=0;left=0;bottom=0;right=0;align=left;spacingLeft=6;overflow=hidden;fontColor=#000000;" vertex="1" parent="4LwVluVdOsAo0shiaIFr-34">
                    <mxGeometry x="190" width="140" height="30" as="geometry"/>
                </mxCell>
                <mxCell id="4LwVluVdOsAo0shiaIFr-38" value="" style="shape=partialRectangle;html=1;whiteSpace=wrap;collapsible=0;dropTarget=0;pointerEvents=0;fillColor=none;top=0;left=0;bottom=1;right=0;points=[[0,0.5],[1,0.5]];portConstraint=eastwest;" vertex="1" parent="4LwVluVdOsAo0shiaIFr-21">
                    <mxGeometry y="140" width="330" height="200" as="geometry"/>
                </mxCell>
                <mxCell id="4LwVluVdOsAo0shiaIFr-39" value="" style="shape=partialRectangle;html=1;whiteSpace=wrap;connectable=0;fillColor=none;top=0;left=0;bottom=1;right=0;overflow=hidden;strokeColor=#000000;" vertex="1" parent="4LwVluVdOsAo0shiaIFr-38">
                    <mxGeometry width="50" height="200" as="geometry"/>
                </mxCell>
                <mxCell id="4LwVluVdOsAo0shiaIFr-40" value="&lt;br style=&quot;padding: 0px ; margin: 0px ; color: rgb(0 , 0 , 0)&quot;&gt;&lt;span style=&quot;color: rgb(0 , 0 , 0)&quot;&gt;+&amp;nbsp;&lt;/span&gt;&lt;br style=&quot;padding: 0px ; margin: 0px ; color: rgb(0 , 0 , 0)&quot;&gt;&lt;span style=&quot;color: rgb(0 , 0 , 0)&quot;&gt;+&amp;nbsp;&lt;/span&gt;&lt;br style=&quot;padding: 0px ; margin: 0px ; color: rgb(0 , 0 , 0)&quot;&gt;&lt;span style=&quot;color: rgb(0 , 0 , 0)&quot;&gt;+&amp;nbsp;&lt;/span&gt;&lt;br style=&quot;padding: 0px ; margin: 0px ; color: rgb(0 , 0 , 0)&quot;&gt;&lt;span style=&quot;color: rgb(0 , 0 , 0)&quot;&gt;+&amp;nbsp;&lt;/span&gt;&lt;br style=&quot;padding: 0px ; margin: 0px ; color: rgb(0 , 0 , 0)&quot;&gt;&lt;span style=&quot;color: rgb(0 , 0 , 0)&quot;&gt;+&amp;nbsp;&lt;/span&gt;&lt;br style=&quot;padding: 0px ; margin: 0px ; color: rgb(0 , 0 , 0)&quot;&gt;&lt;span style=&quot;color: rgb(0 , 0 , 0)&quot;&gt;+&amp;nbsp;&lt;/span&gt;&lt;br style=&quot;padding: 0px ; margin: 0px ; color: rgb(0 , 0 , 0)&quot;&gt;&lt;span style=&quot;color: rgb(0 , 0 , 0)&quot;&gt;+&lt;/span&gt;" style="shape=partialRectangle;html=1;whiteSpace=wrap;connectable=0;fillColor=none;top=0;left=0;bottom=1;right=0;align=left;spacingLeft=6;overflow=hidden;strokeColor=#000000;flipH=1;" vertex="1" parent="4LwVluVdOsAo0shiaIFr-38">
                    <mxGeometry x="50" width="140" height="200" as="geometry"/>
                </mxCell>
                <mxCell id="4LwVluVdOsAo0shiaIFr-41" value="&lt;b style=&quot;color: rgb(0 , 0 , 0)&quot;&gt;varchar(50)&lt;br&gt;&lt;/b&gt;&lt;b style=&quot;color: rgb(0 , 0 , 0)&quot;&gt;varchar(50)&lt;br&gt;&lt;/b&gt;&lt;b style=&quot;color: rgb(0 , 0 , 0)&quot;&gt;varchar(50)&lt;br&gt;&lt;/b&gt;&lt;b style=&quot;color: rgb(0 , 0 , 0)&quot;&gt;varchar(50)&lt;br&gt;&lt;/b&gt;&lt;b style=&quot;color: rgb(0 , 0 , 0)&quot;&gt;varchar(50)&lt;br&gt;&lt;/b&gt;&lt;b style=&quot;color: rgb(0 , 0 , 0)&quot;&gt;varchar(50)&lt;br&gt;&lt;/b&gt;&lt;b style=&quot;color: rgb(0 , 0 , 0)&quot;&gt;varchar(50)&lt;br&gt;&lt;/b&gt;&lt;b style=&quot;color: rgb(0 , 0 , 0)&quot;&gt;varchar(50)&lt;/b&gt;&lt;b style=&quot;color: rgb(0 , 0 , 0)&quot;&gt;&lt;br&gt;&lt;/b&gt;" style="shape=partialRectangle;html=1;whiteSpace=wrap;connectable=0;fillColor=none;top=0;left=0;bottom=1;right=0;align=left;spacingLeft=6;overflow=hidden;strokeColor=#000000;flipH=1;" vertex="1" parent="4LwVluVdOsAo0shiaIFr-38">
                    <mxGeometry x="190" width="140" height="200" as="geometry"/>
                </mxCell>
                <mxCell id="8AqKABZhVZUc1JRrgyvb-340" value="&lt;span style=&quot;color: rgb(255 , 255 , 255)&quot;&gt;Events&lt;/span&gt;" style="shape=table;html=1;whiteSpace=wrap;startSize=30;container=1;collapsible=0;childLayout=tableLayout;fixedRows=1;rowLines=1;fontStyle=1;align=center;shadow=0;sketch=0;strokeColor=#000000;strokeWidth=1;fillColor=#2a2a2a;gradientColor=none;fontColor=#000000;columnLines=1;resizeLast=1;" parent="1" vertex="1">
                    <mxGeometry x="2190" y="140" width="320" height="290" as="geometry"/>
                </mxCell>
                <mxCell id="8AqKABZhVZUc1JRrgyvb-341" value="" style="shape=partialRectangle;html=1;whiteSpace=wrap;collapsible=0;dropTarget=0;pointerEvents=0;fillColor=none;top=0;left=0;bottom=1;right=0;points=[[0,0.5],[1,0.5]];portConstraint=eastwest;" parent="8AqKABZhVZUc1JRrgyvb-340" vertex="1">
                    <mxGeometry y="30" width="320" height="30" as="geometry"/>
                </mxCell>
                <mxCell id="8AqKABZhVZUc1JRrgyvb-342" value="&lt;span style=&quot;color: rgb(0 , 0 , 0) ; font-weight: 700&quot;&gt;PK&lt;/span&gt;" style="shape=partialRectangle;html=1;whiteSpace=wrap;connectable=0;fillColor=none;top=0;left=0;bottom=1;right=0;overflow=hidden;strokeColor=#000000;" parent="8AqKABZhVZUc1JRrgyvb-341" vertex="1">
                    <mxGeometry width="40" height="30" as="geometry"/>
                </mxCell>
                <mxCell id="8AqKABZhVZUc1JRrgyvb-343" value="&lt;span style=&quot;color: rgb(0 , 0 , 0) ; font-weight: 700&quot;&gt;+ Event-Id&lt;/span&gt;" style="shape=partialRectangle;html=1;whiteSpace=wrap;connectable=0;fillColor=none;top=0;left=0;bottom=1;right=0;align=left;spacingLeft=6;overflow=hidden;strokeColor=#000000;" parent="8AqKABZhVZUc1JRrgyvb-341" vertex="1">
                    <mxGeometry x="40" width="140" height="30" as="geometry"/>
                </mxCell>
                <mxCell id="8AqKABZhVZUc1JRrgyvb-344" value="&lt;font color=&quot;#000000&quot;&gt;&lt;b&gt;Int&lt;/b&gt;&lt;/font&gt;" style="shape=partialRectangle;html=1;whiteSpace=wrap;connectable=0;fillColor=none;top=0;left=0;bottom=1;right=0;align=left;spacingLeft=6;overflow=hidden;strokeColor=#000000;" parent="8AqKABZhVZUc1JRrgyvb-341" vertex="1">
                    <mxGeometry x="180" width="140" height="30" as="geometry"/>
                </mxCell>
                <mxCell id="8AqKABZhVZUc1JRrgyvb-345" value="" style="shape=partialRectangle;html=1;whiteSpace=wrap;collapsible=0;dropTarget=0;pointerEvents=0;fillColor=none;top=0;left=0;bottom=0;right=0;points=[[0,0.5],[1,0.5]];portConstraint=eastwest;fontColor=#000000;" parent="8AqKABZhVZUc1JRrgyvb-340" vertex="1">
                    <mxGeometry y="60" width="320" height="30" as="geometry"/>
                </mxCell>
                <mxCell id="8AqKABZhVZUc1JRrgyvb-346" value="&lt;span style=&quot;font-weight: 700&quot;&gt;FK&lt;/span&gt;" style="shape=partialRectangle;html=1;whiteSpace=wrap;connectable=0;fillColor=none;top=0;left=0;bottom=0;right=0;overflow=hidden;fontColor=#000000;" parent="8AqKABZhVZUc1JRrgyvb-345" vertex="1">
                    <mxGeometry width="40" height="30" as="geometry"/>
                </mxCell>
                <mxCell id="8AqKABZhVZUc1JRrgyvb-347" value="+ EventDate&lt;div style=&quot;padding: 0px ; margin: 0px&quot;&gt;&lt;br style=&quot;padding: 0px ; margin: 0px&quot;&gt;&lt;/div&gt;" style="shape=partialRectangle;html=1;whiteSpace=wrap;connectable=0;fillColor=none;top=0;left=0;bottom=0;right=0;align=left;spacingLeft=6;overflow=hidden;fontColor=#000000;" parent="8AqKABZhVZUc1JRrgyvb-345" vertex="1">
                    <mxGeometry x="40" width="140" height="30" as="geometry"/>
                </mxCell>
                <mxCell id="8AqKABZhVZUc1JRrgyvb-348" value="&lt;b&gt;varchar(50)&lt;/b&gt;" style="shape=partialRectangle;html=1;whiteSpace=wrap;connectable=0;fillColor=none;top=0;left=0;bottom=0;right=0;align=left;spacingLeft=6;overflow=hidden;fontColor=#000000;" parent="8AqKABZhVZUc1JRrgyvb-345" vertex="1">
                    <mxGeometry x="180" width="140" height="30" as="geometry"/>
                </mxCell>
                <mxCell id="8AqKABZhVZUc1JRrgyvb-349" value="" style="shape=partialRectangle;html=1;whiteSpace=wrap;collapsible=0;dropTarget=0;pointerEvents=0;fillColor=none;top=0;left=0;bottom=0;right=0;points=[[0,0.5],[1,0.5]];portConstraint=eastwest;fontColor=#000000;" parent="8AqKABZhVZUc1JRrgyvb-340" vertex="1">
                    <mxGeometry y="90" width="320" height="30" as="geometry"/>
                </mxCell>
                <mxCell id="8AqKABZhVZUc1JRrgyvb-350" value="" style="shape=partialRectangle;html=1;whiteSpace=wrap;connectable=0;fillColor=none;top=0;left=0;bottom=0;right=0;overflow=hidden;fontColor=#000000;" parent="8AqKABZhVZUc1JRrgyvb-349" vertex="1">
                    <mxGeometry width="40" height="30" as="geometry"/>
                </mxCell>
                <mxCell id="8AqKABZhVZUc1JRrgyvb-351" value="-&amp;nbsp;" style="shape=partialRectangle;html=1;whiteSpace=wrap;connectable=0;fillColor=none;top=0;left=0;bottom=0;right=0;align=left;spacingLeft=6;overflow=hidden;fontColor=#000000;" parent="8AqKABZhVZUc1JRrgyvb-349" vertex="1">
                    <mxGeometry x="40" width="140" height="30" as="geometry"/>
                </mxCell>
                <mxCell id="8AqKABZhVZUc1JRrgyvb-352" value="&lt;b&gt;varchar(50)&lt;/b&gt;" style="shape=partialRectangle;html=1;whiteSpace=wrap;connectable=0;fillColor=none;top=0;left=0;bottom=0;right=0;align=left;spacingLeft=6;overflow=hidden;fontColor=#000000;" parent="8AqKABZhVZUc1JRrgyvb-349" vertex="1">
                    <mxGeometry x="180" width="140" height="30" as="geometry"/>
                </mxCell>
                <mxCell id="8AqKABZhVZUc1JRrgyvb-353" value="" style="shape=partialRectangle;html=1;whiteSpace=wrap;collapsible=0;dropTarget=0;pointerEvents=0;fillColor=none;top=0;left=0;bottom=1;right=0;points=[[0,0.5],[1,0.5]];portConstraint=eastwest;" parent="8AqKABZhVZUc1JRrgyvb-340" vertex="1">
                    <mxGeometry y="120" width="320" height="170" as="geometry"/>
                </mxCell>
                <mxCell id="8AqKABZhVZUc1JRrgyvb-354" value="" style="shape=partialRectangle;html=1;whiteSpace=wrap;connectable=0;fillColor=none;top=0;left=0;bottom=1;right=0;overflow=hidden;strokeColor=#000000;" parent="8AqKABZhVZUc1JRrgyvb-353" vertex="1">
                    <mxGeometry width="40" height="170" as="geometry"/>
                </mxCell>
                <mxCell id="8AqKABZhVZUc1JRrgyvb-355" value="&lt;span style=&quot;color: rgb(0 , 0 , 0)&quot;&gt;+&amp;nbsp;&lt;/span&gt;&lt;span style=&quot;color: rgb(0 , 0 , 0)&quot;&gt;EventMonth&lt;/span&gt;&lt;br style=&quot;padding: 0px ; margin: 0px ; color: rgb(0 , 0 , 0)&quot;&gt;&lt;span style=&quot;color: rgb(0 , 0 , 0)&quot;&gt;+ EventDescription&lt;/span&gt;&lt;br style=&quot;padding: 0px ; margin: 0px ; color: rgb(0 , 0 , 0)&quot;&gt;&lt;span style=&quot;color: rgb(0 , 0 , 0)&quot;&gt;+&amp;nbsp;&lt;/span&gt;&lt;br style=&quot;padding: 0px ; margin: 0px ; color: rgb(0 , 0 , 0)&quot;&gt;&lt;span style=&quot;color: rgb(0 , 0 , 0)&quot;&gt;+&amp;nbsp;&lt;/span&gt;&lt;br style=&quot;padding: 0px ; margin: 0px ; color: rgb(0 , 0 , 0)&quot;&gt;&lt;span style=&quot;color: rgb(0 , 0 , 0)&quot;&gt;+&amp;nbsp;&lt;/span&gt;&lt;br style=&quot;padding: 0px ; margin: 0px ; color: rgb(0 , 0 , 0)&quot;&gt;&lt;span style=&quot;color: rgb(0 , 0 , 0)&quot;&gt;+&amp;nbsp;&lt;/span&gt;&lt;br style=&quot;padding: 0px ; margin: 0px ; color: rgb(0 , 0 , 0)&quot;&gt;&lt;span style=&quot;color: rgb(0 , 0 , 0)&quot;&gt;+&amp;nbsp;&lt;/span&gt;&lt;br style=&quot;padding: 0px ; margin: 0px ; color: rgb(0 , 0 , 0)&quot;&gt;&lt;span style=&quot;color: rgb(0 , 0 , 0)&quot;&gt;+&lt;/span&gt;" style="shape=partialRectangle;html=1;whiteSpace=wrap;connectable=0;fillColor=none;top=0;left=0;bottom=1;right=0;align=left;spacingLeft=6;overflow=hidden;strokeColor=#000000;flipH=1;" parent="8AqKABZhVZUc1JRrgyvb-353" vertex="1">
                    <mxGeometry x="40" width="140" height="170" as="geometry"/>
                </mxCell>
                <mxCell id="8AqKABZhVZUc1JRrgyvb-356" value="&lt;b style=&quot;color: rgb(0 , 0 , 0)&quot;&gt;varchar(50)&lt;br&gt;&lt;/b&gt;&lt;b style=&quot;color: rgb(0 , 0 , 0)&quot;&gt;varchar(50)&lt;br&gt;&lt;/b&gt;&lt;b style=&quot;color: rgb(0 , 0 , 0)&quot;&gt;varchar(50)&lt;br&gt;&lt;/b&gt;&lt;b style=&quot;color: rgb(0 , 0 , 0)&quot;&gt;varchar(50)&lt;br&gt;&lt;/b&gt;&lt;b style=&quot;color: rgb(0 , 0 , 0)&quot;&gt;varchar(50)&lt;br&gt;&lt;/b&gt;&lt;b style=&quot;color: rgb(0 , 0 , 0)&quot;&gt;varchar(50)&lt;br&gt;&lt;/b&gt;&lt;b style=&quot;color: rgb(0 , 0 , 0)&quot;&gt;varchar(50)&lt;br&gt;&lt;/b&gt;&lt;b style=&quot;color: rgb(0 , 0 , 0)&quot;&gt;varchar(50)&lt;/b&gt;&lt;b style=&quot;color: rgb(0 , 0 , 0)&quot;&gt;&lt;br&gt;&lt;/b&gt;" style="shape=partialRectangle;html=1;whiteSpace=wrap;connectable=0;fillColor=none;top=0;left=0;bottom=1;right=0;align=left;spacingLeft=6;overflow=hidden;strokeColor=#000000;flipH=1;" parent="8AqKABZhVZUc1JRrgyvb-353" vertex="1">
                    <mxGeometry x="180" width="140" height="170" as="geometry"/>
                </mxCell>
                <mxCell id="8Ao7-pVW5TEEtUSbZB_A-1" style="edgeStyle=orthogonalEdgeStyle;rounded=0;orthogonalLoop=1;jettySize=auto;html=1;exitX=0;exitY=0.5;exitDx=0;exitDy=0;entryX=1;entryY=0.5;entryDx=0;entryDy=0;strokeColor=#000000;endSize=9;startSize=9;" edge="1" parent="1" source="8AqKABZhVZUc1JRrgyvb-324" target="1LdOg6mQmbc9WHdVqoS4-522">
                    <mxGeometry relative="1" as="geometry"/>
                </mxCell>
                <mxCell id="8Ao7-pVW5TEEtUSbZB_A-2" style="edgeStyle=orthogonalEdgeStyle;rounded=0;orthogonalLoop=1;jettySize=auto;html=1;exitX=1;exitY=0.5;exitDx=0;exitDy=0;strokeColor=#000000;entryX=0;entryY=0.5;entryDx=0;entryDy=0;endSize=9;startSize=9;" edge="1" parent="1" source="8AqKABZhVZUc1JRrgyvb-324" target="4LwVluVdOsAo0shiaIFr-26">
                    <mxGeometry relative="1" as="geometry">
                        <Array as="points">
                            <mxPoint x="1700" y="440"/>
                            <mxPoint x="1700" y="550"/>
                            <mxPoint x="1830" y="550"/>
                            <mxPoint x="1830" y="555"/>
                        </Array>
                    </mxGeometry>
                </mxCell>
                <mxCell id="FBR8TB5QwbyuHiwb3y1V-1" style="edgeStyle=orthogonalEdgeStyle;rounded=0;orthogonalLoop=1;jettySize=auto;html=1;startArrow=none;startFill=0;endArrow=classic;endFill=1;strokeColor=#000000;entryX=0;entryY=0.5;entryDx=0;entryDy=0;startSize=9;endSize=9;" edge="1" parent="1" source="1LdOg6mQmbc9WHdVqoS4-442" target="8AqKABZhVZUc1JRrgyvb-328">
                    <mxGeometry relative="1" as="geometry">
                        <mxPoint x="1300" y="265" as="targetPoint"/>
                        <mxPoint x="1346" y="322" as="sourcePoint"/>
                        <Array as="points">
                            <mxPoint x="1320" y="322"/>
                            <mxPoint x="1320" y="465"/>
                        </Array>
                    </mxGeometry>
                </mxCell>
                <mxCell id="4LwVluVdOsAo0shiaIFr-10" style="edgeStyle=orthogonalEdgeStyle;rounded=0;orthogonalLoop=1;jettySize=auto;html=1;exitX=0;exitY=0.5;exitDx=0;exitDy=0;entryX=1;entryY=0.5;entryDx=0;entryDy=0;startArrow=none;startFill=0;endArrow=classic;endFill=1;strokeColor=#000000;endSize=9;startSize=9;" edge="1" parent="1" source="1LdOg6mQmbc9WHdVqoS4-430" target="1LdOg6mQmbc9WHdVqoS4-518">
                    <mxGeometry relative="1" as="geometry"/>
                </mxCell>
                <mxCell id="8AqKABZhVZUc1JRrgyvb-357" value="&lt;span style=&quot;color: rgb(255 , 255 , 255)&quot;&gt;Schedule&lt;/span&gt;" style="shape=table;html=1;whiteSpace=wrap;startSize=30;container=1;collapsible=0;childLayout=tableLayout;fixedRows=1;rowLines=1;fontStyle=1;align=center;shadow=0;sketch=0;strokeColor=#000000;strokeWidth=1;fillColor=#2a2a2a;gradientColor=none;fontColor=#000000;columnLines=1;resizeLast=1;" parent="1" vertex="1">
                    <mxGeometry x="1790" y="30" width="320" height="290" as="geometry"/>
                </mxCell>
                <mxCell id="8AqKABZhVZUc1JRrgyvb-358" value="" style="shape=partialRectangle;html=1;whiteSpace=wrap;collapsible=0;dropTarget=0;pointerEvents=0;fillColor=none;top=0;left=0;bottom=1;right=0;points=[[0,0.5],[1,0.5]];portConstraint=eastwest;" parent="8AqKABZhVZUc1JRrgyvb-357" vertex="1">
                    <mxGeometry y="30" width="320" height="30" as="geometry"/>
                </mxCell>
                <mxCell id="8AqKABZhVZUc1JRrgyvb-359" value="&lt;span style=&quot;color: rgb(0 , 0 , 0) ; font-weight: 700&quot;&gt;PK&lt;/span&gt;" style="shape=partialRectangle;html=1;whiteSpace=wrap;connectable=0;fillColor=none;top=0;left=0;bottom=1;right=0;overflow=hidden;strokeColor=#000000;" parent="8AqKABZhVZUc1JRrgyvb-358" vertex="1">
                    <mxGeometry width="40" height="30" as="geometry"/>
                </mxCell>
                <mxCell id="8AqKABZhVZUc1JRrgyvb-360" value="&lt;span style=&quot;color: rgb(0 , 0 , 0) ; font-weight: 700&quot;&gt;+ Schedule-Id&lt;/span&gt;" style="shape=partialRectangle;html=1;whiteSpace=wrap;connectable=0;fillColor=none;top=0;left=0;bottom=1;right=0;align=left;spacingLeft=6;overflow=hidden;strokeColor=#000000;" parent="8AqKABZhVZUc1JRrgyvb-358" vertex="1">
                    <mxGeometry x="40" width="140" height="30" as="geometry"/>
                </mxCell>
                <mxCell id="8AqKABZhVZUc1JRrgyvb-361" value="&lt;font color=&quot;#000000&quot;&gt;&lt;b&gt;Int&lt;/b&gt;&lt;/font&gt;" style="shape=partialRectangle;html=1;whiteSpace=wrap;connectable=0;fillColor=none;top=0;left=0;bottom=1;right=0;align=left;spacingLeft=6;overflow=hidden;strokeColor=#000000;" parent="8AqKABZhVZUc1JRrgyvb-358" vertex="1">
                    <mxGeometry x="180" width="140" height="30" as="geometry"/>
                </mxCell>
                <mxCell id="8AqKABZhVZUc1JRrgyvb-362" value="" style="shape=partialRectangle;html=1;whiteSpace=wrap;collapsible=0;dropTarget=0;pointerEvents=0;fillColor=none;top=0;left=0;bottom=0;right=0;points=[[0,0.5],[1,0.5]];portConstraint=eastwest;fontColor=#000000;" parent="8AqKABZhVZUc1JRrgyvb-357" vertex="1">
                    <mxGeometry y="60" width="320" height="30" as="geometry"/>
                </mxCell>
                <mxCell id="8AqKABZhVZUc1JRrgyvb-363" value="&lt;span style=&quot;font-weight: 700&quot;&gt;FK&lt;/span&gt;" style="shape=partialRectangle;html=1;whiteSpace=wrap;connectable=0;fillColor=none;top=0;left=0;bottom=0;right=0;overflow=hidden;fontColor=#000000;" parent="8AqKABZhVZUc1JRrgyvb-362" vertex="1">
                    <mxGeometry width="40" height="30" as="geometry"/>
                </mxCell>
                <mxCell id="8AqKABZhVZUc1JRrgyvb-364" value="+&amp;nbsp;" style="shape=partialRectangle;html=1;whiteSpace=wrap;connectable=0;fillColor=none;top=0;left=0;bottom=0;right=0;align=left;spacingLeft=6;overflow=hidden;fontColor=#000000;" parent="8AqKABZhVZUc1JRrgyvb-362" vertex="1">
                    <mxGeometry x="40" width="140" height="30" as="geometry"/>
                </mxCell>
                <mxCell id="8AqKABZhVZUc1JRrgyvb-365" value="&lt;b&gt;varchar(50)&lt;/b&gt;" style="shape=partialRectangle;html=1;whiteSpace=wrap;connectable=0;fillColor=none;top=0;left=0;bottom=0;right=0;align=left;spacingLeft=6;overflow=hidden;fontColor=#000000;" parent="8AqKABZhVZUc1JRrgyvb-362" vertex="1">
                    <mxGeometry x="180" width="140" height="30" as="geometry"/>
                </mxCell>
                <mxCell id="8AqKABZhVZUc1JRrgyvb-366" value="" style="shape=partialRectangle;html=1;whiteSpace=wrap;collapsible=0;dropTarget=0;pointerEvents=0;fillColor=none;top=0;left=0;bottom=0;right=0;points=[[0,0.5],[1,0.5]];portConstraint=eastwest;fontColor=#000000;" parent="8AqKABZhVZUc1JRrgyvb-357" vertex="1">
                    <mxGeometry y="90" width="320" height="30" as="geometry"/>
                </mxCell>
                <mxCell id="8AqKABZhVZUc1JRrgyvb-367" value="" style="shape=partialRectangle;html=1;whiteSpace=wrap;connectable=0;fillColor=none;top=0;left=0;bottom=0;right=0;overflow=hidden;fontColor=#000000;" parent="8AqKABZhVZUc1JRrgyvb-366" vertex="1">
                    <mxGeometry width="40" height="30" as="geometry"/>
                </mxCell>
                <mxCell id="8AqKABZhVZUc1JRrgyvb-368" value="-&amp;nbsp;" style="shape=partialRectangle;html=1;whiteSpace=wrap;connectable=0;fillColor=none;top=0;left=0;bottom=0;right=0;align=left;spacingLeft=6;overflow=hidden;fontColor=#000000;" parent="8AqKABZhVZUc1JRrgyvb-366" vertex="1">
                    <mxGeometry x="40" width="140" height="30" as="geometry"/>
                </mxCell>
                <mxCell id="8AqKABZhVZUc1JRrgyvb-369" value="&lt;b&gt;varchar(50)&lt;/b&gt;" style="shape=partialRectangle;html=1;whiteSpace=wrap;connectable=0;fillColor=none;top=0;left=0;bottom=0;right=0;align=left;spacingLeft=6;overflow=hidden;fontColor=#000000;" parent="8AqKABZhVZUc1JRrgyvb-366" vertex="1">
                    <mxGeometry x="180" width="140" height="30" as="geometry"/>
                </mxCell>
                <mxCell id="8AqKABZhVZUc1JRrgyvb-370" value="" style="shape=partialRectangle;html=1;whiteSpace=wrap;collapsible=0;dropTarget=0;pointerEvents=0;fillColor=none;top=0;left=0;bottom=1;right=0;points=[[0,0.5],[1,0.5]];portConstraint=eastwest;" parent="8AqKABZhVZUc1JRrgyvb-357" vertex="1">
                    <mxGeometry y="120" width="320" height="170" as="geometry"/>
                </mxCell>
                <mxCell id="8AqKABZhVZUc1JRrgyvb-371" value="" style="shape=partialRectangle;html=1;whiteSpace=wrap;connectable=0;fillColor=none;top=0;left=0;bottom=1;right=0;overflow=hidden;strokeColor=#000000;" parent="8AqKABZhVZUc1JRrgyvb-370" vertex="1">
                    <mxGeometry width="40" height="170" as="geometry"/>
                </mxCell>
                <mxCell id="8AqKABZhVZUc1JRrgyvb-372" value="&lt;span style=&quot;color: rgb(0 , 0 , 0)&quot;&gt;+&amp;nbsp;&lt;/span&gt;&lt;br style=&quot;padding: 0px ; margin: 0px ; color: rgb(0 , 0 , 0)&quot;&gt;&lt;span style=&quot;color: rgb(0 , 0 , 0)&quot;&gt;+&amp;nbsp;&lt;/span&gt;&lt;br style=&quot;padding: 0px ; margin: 0px ; color: rgb(0 , 0 , 0)&quot;&gt;&lt;span style=&quot;color: rgb(0 , 0 , 0)&quot;&gt;+&amp;nbsp;&lt;/span&gt;&lt;br style=&quot;padding: 0px ; margin: 0px ; color: rgb(0 , 0 , 0)&quot;&gt;&lt;span style=&quot;color: rgb(0 , 0 , 0)&quot;&gt;+&amp;nbsp;&lt;/span&gt;&lt;br style=&quot;padding: 0px ; margin: 0px ; color: rgb(0 , 0 , 0)&quot;&gt;&lt;span style=&quot;color: rgb(0 , 0 , 0)&quot;&gt;+&amp;nbsp;&lt;/span&gt;&lt;br style=&quot;padding: 0px ; margin: 0px ; color: rgb(0 , 0 , 0)&quot;&gt;&lt;span style=&quot;color: rgb(0 , 0 , 0)&quot;&gt;+&amp;nbsp;&lt;/span&gt;&lt;br style=&quot;padding: 0px ; margin: 0px ; color: rgb(0 , 0 , 0)&quot;&gt;&lt;span style=&quot;color: rgb(0 , 0 , 0)&quot;&gt;+&amp;nbsp;&lt;/span&gt;&lt;br style=&quot;padding: 0px ; margin: 0px ; color: rgb(0 , 0 , 0)&quot;&gt;&lt;span style=&quot;color: rgb(0 , 0 , 0)&quot;&gt;+&lt;/span&gt;" style="shape=partialRectangle;html=1;whiteSpace=wrap;connectable=0;fillColor=none;top=0;left=0;bottom=1;right=0;align=left;spacingLeft=6;overflow=hidden;strokeColor=#000000;flipH=1;" parent="8AqKABZhVZUc1JRrgyvb-370" vertex="1">
                    <mxGeometry x="40" width="140" height="170" as="geometry"/>
                </mxCell>
                <mxCell id="8AqKABZhVZUc1JRrgyvb-373" value="&lt;b style=&quot;color: rgb(0 , 0 , 0)&quot;&gt;varchar(50)&lt;br&gt;&lt;/b&gt;&lt;b style=&quot;color: rgb(0 , 0 , 0)&quot;&gt;varchar(50)&lt;br&gt;&lt;/b&gt;&lt;b style=&quot;color: rgb(0 , 0 , 0)&quot;&gt;varchar(50)&lt;br&gt;&lt;/b&gt;&lt;b style=&quot;color: rgb(0 , 0 , 0)&quot;&gt;varchar(50)&lt;br&gt;&lt;/b&gt;&lt;b style=&quot;color: rgb(0 , 0 , 0)&quot;&gt;varchar(50)&lt;br&gt;&lt;/b&gt;&lt;b style=&quot;color: rgb(0 , 0 , 0)&quot;&gt;varchar(50)&lt;br&gt;&lt;/b&gt;&lt;b style=&quot;color: rgb(0 , 0 , 0)&quot;&gt;varchar(50)&lt;br&gt;&lt;/b&gt;&lt;b style=&quot;color: rgb(0 , 0 , 0)&quot;&gt;varchar(50)&lt;/b&gt;&lt;b style=&quot;color: rgb(0 , 0 , 0)&quot;&gt;&lt;br&gt;&lt;/b&gt;" style="shape=partialRectangle;html=1;whiteSpace=wrap;connectable=0;fillColor=none;top=0;left=0;bottom=1;right=0;align=left;spacingLeft=6;overflow=hidden;strokeColor=#000000;flipH=1;" parent="8AqKABZhVZUc1JRrgyvb-370" vertex="1">
                    <mxGeometry x="180" width="140" height="170" as="geometry"/>
                </mxCell>
            </root>
        </mxGraphModel>
    </diagram>
    <diagram name="Copy of Page-1" id="Mgyg5OfmxUAOT0k-bXdi">
        <mxGraphModel dx="2474" dy="771" grid="1" gridSize="10" guides="1" tooltips="1" connect="1" arrows="1" fold="1" page="1" pageScale="1" pageWidth="1100" pageHeight="850" background="#ffffff" math="0" shadow="0">
            <root>
                <mxCell id="JrACWeJc-KHIJ33elT-4-0"/>
                <mxCell id="JrACWeJc-KHIJ33elT-4-1" parent="JrACWeJc-KHIJ33elT-4-0"/>
                <mxCell id="JrACWeJc-KHIJ33elT-4-2" style="edgeStyle=orthogonalEdgeStyle;rounded=0;orthogonalLoop=1;jettySize=auto;html=1;strokeColor=#000000;fontColor=#000000;entryX=0.75;entryY=0;entryDx=0;entryDy=0;exitX=0;exitY=0.5;exitDx=0;exitDy=0;endSize=9;startSize=9;" parent="JrACWeJc-KHIJ33elT-4-1" source="JrACWeJc-KHIJ33elT-4-65" target="JrACWeJc-KHIJ33elT-4-74" edge="1">
                    <mxGeometry relative="1" as="geometry">
                        <mxPoint x="199" y="531.98" as="targetPoint"/>
                        <mxPoint x="390" y="485" as="sourcePoint"/>
                        <Array as="points">
                            <mxPoint x="420" y="485"/>
                            <mxPoint x="245" y="485"/>
                        </Array>
                    </mxGeometry>
                </mxCell>
                <mxCell id="JrACWeJc-KHIJ33elT-4-3" style="edgeStyle=orthogonalEdgeStyle;rounded=0;orthogonalLoop=1;jettySize=auto;html=1;strokeColor=#000000;fontColor=#000000;exitX=1;exitY=0.5;exitDx=0;exitDy=0;entryX=0.427;entryY=-0.016;entryDx=0;entryDy=0;entryPerimeter=0;endSize=9;startSize=9;" parent="JrACWeJc-KHIJ33elT-4-1" source="JrACWeJc-KHIJ33elT-4-92" target="JrACWeJc-KHIJ33elT-4-74" edge="1">
                    <mxGeometry relative="1" as="geometry">
                        <mxPoint x="50" y="440" as="sourcePoint"/>
                        <mxPoint x="190" y="530" as="targetPoint"/>
                        <Array as="points">
                            <mxPoint x="60" y="380"/>
                            <mxPoint x="60" y="480"/>
                            <mxPoint x="187" y="480"/>
                        </Array>
                    </mxGeometry>
                </mxCell>
                <mxCell id="JrACWeJc-KHIJ33elT-4-4" value="" style="endArrow=none;html=1;entryX=1;entryY=0.5;entryDx=0;entryDy=0;exitX=0;exitY=0.5;exitDx=0;exitDy=0;" parent="JrACWeJc-KHIJ33elT-4-1" edge="1">
                    <mxGeometry width="50" height="50" relative="1" as="geometry">
                        <mxPoint x="120" y="335" as="sourcePoint"/>
                        <mxPoint x="280" y="335" as="targetPoint"/>
                    </mxGeometry>
                </mxCell>
                <mxCell id="JrACWeJc-KHIJ33elT-4-5" value="" style="endArrow=none;html=1;" parent="JrACWeJc-KHIJ33elT-4-1" edge="1">
                    <mxGeometry width="50" height="50" relative="1" as="geometry">
                        <mxPoint x="520" y="360" as="sourcePoint"/>
                        <mxPoint x="580" y="350" as="targetPoint"/>
                    </mxGeometry>
                </mxCell>
                <mxCell id="JrACWeJc-KHIJ33elT-4-6" value="Membership" style="shape=table;startSize=30;container=1;collapsible=1;childLayout=tableLayout;fixedRows=1;rowLines=0;fontStyle=1;align=center;resizeLast=1;strokeColor=#000000;fontColor=#FFFFFF;" parent="JrACWeJc-KHIJ33elT-4-1" vertex="1">
                    <mxGeometry x="420" y="80" width="180" height="260" as="geometry"/>
                </mxCell>
                <mxCell id="JrACWeJc-KHIJ33elT-4-7" value="" style="shape=partialRectangle;collapsible=0;dropTarget=0;pointerEvents=0;fillColor=none;top=0;left=0;bottom=1;right=0;points=[[0,0.5],[1,0.5]];portConstraint=eastwest;" parent="JrACWeJc-KHIJ33elT-4-6" vertex="1">
                    <mxGeometry y="30" width="180" height="30" as="geometry"/>
                </mxCell>
                <mxCell id="JrACWeJc-KHIJ33elT-4-8" value="PK" style="shape=partialRectangle;connectable=0;fillColor=none;top=0;left=0;bottom=1;right=0;fontStyle=1;overflow=hidden;fontColor=#000000;strokeColor=#000000;" parent="JrACWeJc-KHIJ33elT-4-7" vertex="1">
                    <mxGeometry width="30" height="30" as="geometry"/>
                </mxCell>
                <mxCell id="JrACWeJc-KHIJ33elT-4-9" value="+ MemberType" style="shape=partialRectangle;connectable=0;fillColor=none;top=0;left=0;bottom=1;right=0;align=left;spacingLeft=6;fontStyle=1;overflow=hidden;fontColor=#000000;strokeColor=#000000;strokeWidth=1;perimeterSpacing=1;shadow=0;sketch=0;" parent="JrACWeJc-KHIJ33elT-4-7" vertex="1">
                    <mxGeometry x="30" width="150" height="30" as="geometry"/>
                </mxCell>
                <mxCell id="JrACWeJc-KHIJ33elT-4-10" value="" style="shape=partialRectangle;collapsible=0;dropTarget=0;pointerEvents=0;fillColor=none;top=0;left=0;bottom=0;right=0;points=[[0,0.5],[1,0.5]];portConstraint=eastwest;fontColor=#000000;" parent="JrACWeJc-KHIJ33elT-4-6" vertex="1">
                    <mxGeometry y="60" width="180" height="20" as="geometry"/>
                </mxCell>
                <mxCell id="JrACWeJc-KHIJ33elT-4-11" value="FK" style="shape=partialRectangle;connectable=0;fillColor=none;top=0;left=0;bottom=1;right=0;editable=1;overflow=hidden;fontColor=#000000;fontStyle=1;strokeColor=#000000;" parent="JrACWeJc-KHIJ33elT-4-10" vertex="1">
                    <mxGeometry width="30" height="20" as="geometry"/>
                </mxCell>
                <mxCell id="JrACWeJc-KHIJ33elT-4-12" value="+ &#10;" style="shape=partialRectangle;connectable=0;fillColor=none;top=0;left=0;bottom=1;right=0;align=left;spacingLeft=6;overflow=hidden;fontColor=#000000;strokeColor=#000000;" parent="JrACWeJc-KHIJ33elT-4-10" vertex="1">
                    <mxGeometry x="30" width="150" height="20" as="geometry"/>
                </mxCell>
                <mxCell id="JrACWeJc-KHIJ33elT-4-13" value="" style="shape=partialRectangle;collapsible=0;dropTarget=0;pointerEvents=0;fillColor=none;top=0;left=0;bottom=0;right=0;points=[[0,0.5],[1,0.5]];portConstraint=eastwest;fontColor=#000000;" parent="JrACWeJc-KHIJ33elT-4-6" vertex="1">
                    <mxGeometry y="80" width="180" height="20" as="geometry"/>
                </mxCell>
                <mxCell id="JrACWeJc-KHIJ33elT-4-14" value="" style="shape=partialRectangle;connectable=0;fillColor=none;top=0;left=0;bottom=0;right=0;editable=1;overflow=hidden;fontColor=#000000;" parent="JrACWeJc-KHIJ33elT-4-13" vertex="1">
                    <mxGeometry width="30" height="20" as="geometry"/>
                </mxCell>
                <mxCell id="JrACWeJc-KHIJ33elT-4-15" value="- " style="shape=partialRectangle;connectable=0;fillColor=none;top=0;left=0;bottom=1;right=0;align=left;spacingLeft=6;overflow=hidden;fontColor=#000000;strokeColor=#000000;" parent="JrACWeJc-KHIJ33elT-4-13" vertex="1">
                    <mxGeometry x="30" width="150" height="20" as="geometry"/>
                </mxCell>
                <mxCell id="JrACWeJc-KHIJ33elT-4-16" value="" style="shape=partialRectangle;collapsible=0;dropTarget=0;pointerEvents=0;fillColor=none;top=0;left=0;bottom=0;right=0;points=[[0,0.5],[1,0.5]];portConstraint=eastwest;fontColor=#000000;" parent="JrACWeJc-KHIJ33elT-4-6" vertex="1">
                    <mxGeometry y="100" width="180" height="140" as="geometry"/>
                </mxCell>
                <mxCell id="JrACWeJc-KHIJ33elT-4-17" value="" style="shape=partialRectangle;connectable=0;fillColor=none;top=0;left=0;bottom=0;right=0;editable=1;overflow=hidden;fontColor=#000000;" parent="JrACWeJc-KHIJ33elT-4-16" vertex="1">
                    <mxGeometry width="30" height="140" as="geometry"/>
                </mxCell>
                <mxCell id="JrACWeJc-KHIJ33elT-4-18" value="+&#10;+&#10;+" style="shape=partialRectangle;connectable=0;fillColor=none;top=0;left=0;bottom=0;right=0;align=left;spacingLeft=6;overflow=hidden;fontColor=#000000;" parent="JrACWeJc-KHIJ33elT-4-16" vertex="1">
                    <mxGeometry x="30" width="150" height="140" as="geometry"/>
                </mxCell>
                <mxCell id="JrACWeJc-KHIJ33elT-4-19" value="Users" style="shape=table;startSize=30;container=1;collapsible=1;childLayout=tableLayout;fixedRows=1;rowLines=0;fontStyle=1;align=center;resizeLast=1;strokeColor=#000000;fontColor=#FFFFFF;" parent="JrACWeJc-KHIJ33elT-4-1" vertex="1">
                    <mxGeometry x="100" y="70" width="220" height="260" as="geometry"/>
                </mxCell>
                <mxCell id="JrACWeJc-KHIJ33elT-4-20" value="" style="shape=partialRectangle;collapsible=0;dropTarget=0;pointerEvents=0;fillColor=none;top=0;left=0;bottom=1;right=0;points=[[0,0.5],[1,0.5]];portConstraint=eastwest;" parent="JrACWeJc-KHIJ33elT-4-19" vertex="1">
                    <mxGeometry y="30" width="220" height="30" as="geometry"/>
                </mxCell>
                <mxCell id="JrACWeJc-KHIJ33elT-4-21" value="PK" style="shape=partialRectangle;connectable=0;fillColor=none;top=0;left=0;bottom=1;right=0;fontStyle=1;overflow=hidden;fontColor=#000000;strokeColor=#000000;" parent="JrACWeJc-KHIJ33elT-4-20" vertex="1">
                    <mxGeometry width="30" height="30" as="geometry"/>
                </mxCell>
                <mxCell id="JrACWeJc-KHIJ33elT-4-22" value="+ User-Id" style="shape=partialRectangle;connectable=0;fillColor=none;top=0;left=0;bottom=1;right=0;align=left;spacingLeft=6;fontStyle=1;overflow=hidden;fontColor=#000000;strokeColor=#000000;strokeWidth=1;perimeterSpacing=1;shadow=0;sketch=0;" parent="JrACWeJc-KHIJ33elT-4-20" vertex="1">
                    <mxGeometry x="30" width="190" height="30" as="geometry"/>
                </mxCell>
                <mxCell id="JrACWeJc-KHIJ33elT-4-23" value="" style="shape=partialRectangle;collapsible=0;dropTarget=0;pointerEvents=0;fillColor=none;top=0;left=0;bottom=0;right=0;points=[[0,0.5],[1,0.5]];portConstraint=eastwest;fontColor=#000000;" parent="JrACWeJc-KHIJ33elT-4-19" vertex="1">
                    <mxGeometry y="60" width="220" height="20" as="geometry"/>
                </mxCell>
                <mxCell id="JrACWeJc-KHIJ33elT-4-24" value="FK" style="shape=partialRectangle;connectable=0;fillColor=none;top=0;left=0;bottom=1;right=0;editable=1;overflow=hidden;fontColor=#000000;fontStyle=1;strokeColor=#000000;" parent="JrACWeJc-KHIJ33elT-4-23" vertex="1">
                    <mxGeometry width="30" height="20" as="geometry"/>
                </mxCell>
                <mxCell id="JrACWeJc-KHIJ33elT-4-25" value="+ Username&#10;" style="shape=partialRectangle;connectable=0;fillColor=none;top=0;left=0;bottom=1;right=0;align=left;spacingLeft=6;overflow=hidden;fontColor=#000000;strokeColor=#000000;" parent="JrACWeJc-KHIJ33elT-4-23" vertex="1">
                    <mxGeometry x="30" width="190" height="20" as="geometry"/>
                </mxCell>
                <mxCell id="JrACWeJc-KHIJ33elT-4-26" value="" style="shape=partialRectangle;collapsible=0;dropTarget=0;pointerEvents=0;fillColor=none;top=0;left=0;bottom=0;right=0;points=[[0,0.5],[1,0.5]];portConstraint=eastwest;fontColor=#000000;" parent="JrACWeJc-KHIJ33elT-4-19" vertex="1">
                    <mxGeometry y="80" width="220" height="20" as="geometry"/>
                </mxCell>
                <mxCell id="JrACWeJc-KHIJ33elT-4-27" value="" style="shape=partialRectangle;connectable=0;fillColor=none;top=0;left=0;bottom=0;right=0;editable=1;overflow=hidden;fontColor=#000000;" parent="JrACWeJc-KHIJ33elT-4-26" vertex="1">
                    <mxGeometry width="30" height="20" as="geometry"/>
                </mxCell>
                <mxCell id="JrACWeJc-KHIJ33elT-4-28" value="- limited to class" style="shape=partialRectangle;connectable=0;fillColor=none;top=0;left=0;bottom=1;right=0;align=left;spacingLeft=6;overflow=hidden;fontColor=#000000;strokeColor=#000000;" parent="JrACWeJc-KHIJ33elT-4-26" vertex="1">
                    <mxGeometry x="30" width="190" height="20" as="geometry"/>
                </mxCell>
                <mxCell id="JrACWeJc-KHIJ33elT-4-29" value="" style="shape=partialRectangle;collapsible=0;dropTarget=0;pointerEvents=0;fillColor=none;top=0;left=0;bottom=0;right=0;points=[[0,0.5],[1,0.5]];portConstraint=eastwest;fontColor=#000000;" parent="JrACWeJc-KHIJ33elT-4-19" vertex="1">
                    <mxGeometry y="100" width="220" height="140" as="geometry"/>
                </mxCell>
                <mxCell id="JrACWeJc-KHIJ33elT-4-30" value="" style="shape=partialRectangle;connectable=0;fillColor=none;top=0;left=0;bottom=0;right=0;editable=1;overflow=hidden;fontColor=#000000;" parent="JrACWeJc-KHIJ33elT-4-29" vertex="1">
                    <mxGeometry width="30" height="140" as="geometry"/>
                </mxCell>
                <mxCell id="JrACWeJc-KHIJ33elT-4-31" value="+ Password&#10;+ PasswordFormat&#10;+ PasswordQuestion&#10;+ PasswordAnswer&#10;+ CreationDate&#10;+ LastLoginDate&#10;+ UserType&#10;+ Email" style="shape=partialRectangle;connectable=0;fillColor=none;top=0;left=0;bottom=0;right=0;align=left;spacingLeft=6;overflow=hidden;fontColor=#000000;" parent="JrACWeJc-KHIJ33elT-4-29" vertex="1">
                    <mxGeometry x="30" width="190" height="140" as="geometry"/>
                </mxCell>
                <mxCell id="JrACWeJc-KHIJ33elT-4-32" style="edgeStyle=orthogonalEdgeStyle;rounded=0;orthogonalLoop=1;jettySize=auto;html=1;exitX=1;exitY=0.5;exitDx=0;exitDy=0;strokeColor=#000000;entryX=0;entryY=0.5;entryDx=0;entryDy=0;startArrow=ERoneToMany;startFill=0;strokeWidth=1;endSize=9;startSize=9;" parent="JrACWeJc-KHIJ33elT-4-1" source="JrACWeJc-KHIJ33elT-4-23" target="JrACWeJc-KHIJ33elT-4-62" edge="1">
                    <mxGeometry relative="1" as="geometry">
                        <mxPoint x="390" y="445" as="targetPoint"/>
                    </mxGeometry>
                </mxCell>
                <mxCell id="JrACWeJc-KHIJ33elT-4-33" style="edgeStyle=orthogonalEdgeStyle;rounded=0;orthogonalLoop=1;jettySize=auto;html=1;entryX=1;entryY=0.5;entryDx=0;entryDy=0;strokeColor=#000000;startSize=9;endSize=9;" parent="JrACWeJc-KHIJ33elT-4-1" source="JrACWeJc-KHIJ33elT-4-23" target="JrACWeJc-KHIJ33elT-4-89" edge="1">
                    <mxGeometry relative="1" as="geometry">
                        <mxPoint x="50" y="355" as="targetPoint"/>
                    </mxGeometry>
                </mxCell>
                <mxCell id="JrACWeJc-KHIJ33elT-4-34" value="Events" style="shape=table;startSize=30;container=1;collapsible=1;childLayout=tableLayout;fixedRows=1;rowLines=0;fontStyle=1;align=center;resizeLast=1;strokeColor=#000000;fontColor=#FFFFFF;" parent="JrACWeJc-KHIJ33elT-4-1" vertex="1">
                    <mxGeometry x="660" y="40" width="180" height="260" as="geometry"/>
                </mxCell>
                <mxCell id="JrACWeJc-KHIJ33elT-4-35" value="" style="shape=partialRectangle;collapsible=0;dropTarget=0;pointerEvents=0;fillColor=none;top=0;left=0;bottom=1;right=0;points=[[0,0.5],[1,0.5]];portConstraint=eastwest;" parent="JrACWeJc-KHIJ33elT-4-34" vertex="1">
                    <mxGeometry y="30" width="180" height="30" as="geometry"/>
                </mxCell>
                <mxCell id="JrACWeJc-KHIJ33elT-4-36" value="PK" style="shape=partialRectangle;connectable=0;fillColor=none;top=0;left=0;bottom=1;right=0;fontStyle=1;overflow=hidden;fontColor=#000000;strokeColor=#000000;" parent="JrACWeJc-KHIJ33elT-4-35" vertex="1">
                    <mxGeometry width="30" height="30" as="geometry"/>
                </mxCell>
                <mxCell id="JrACWeJc-KHIJ33elT-4-37" value="+ Event-Id" style="shape=partialRectangle;connectable=0;fillColor=none;top=0;left=0;bottom=1;right=0;align=left;spacingLeft=6;fontStyle=1;overflow=hidden;fontColor=#000000;strokeColor=#000000;strokeWidth=1;perimeterSpacing=1;shadow=0;sketch=0;" parent="JrACWeJc-KHIJ33elT-4-35" vertex="1">
                    <mxGeometry x="30" width="150" height="30" as="geometry"/>
                </mxCell>
                <mxCell id="JrACWeJc-KHIJ33elT-4-38" value="" style="shape=partialRectangle;collapsible=0;dropTarget=0;pointerEvents=0;fillColor=none;top=0;left=0;bottom=0;right=0;points=[[0,0.5],[1,0.5]];portConstraint=eastwest;fontColor=#000000;" parent="JrACWeJc-KHIJ33elT-4-34" vertex="1">
                    <mxGeometry y="60" width="180" height="20" as="geometry"/>
                </mxCell>
                <mxCell id="JrACWeJc-KHIJ33elT-4-39" value="FK" style="shape=partialRectangle;connectable=0;fillColor=none;top=0;left=0;bottom=1;right=0;editable=1;overflow=hidden;fontColor=#000000;fontStyle=1;strokeColor=#000000;" parent="JrACWeJc-KHIJ33elT-4-38" vertex="1">
                    <mxGeometry width="30" height="20" as="geometry"/>
                </mxCell>
                <mxCell id="JrACWeJc-KHIJ33elT-4-40" value="+ EventDate&#10;" style="shape=partialRectangle;connectable=0;fillColor=none;top=0;left=0;bottom=1;right=0;align=left;spacingLeft=6;overflow=hidden;fontColor=#000000;strokeColor=#000000;" parent="JrACWeJc-KHIJ33elT-4-38" vertex="1">
                    <mxGeometry x="30" width="150" height="20" as="geometry"/>
                </mxCell>
                <mxCell id="JrACWeJc-KHIJ33elT-4-41" value="" style="shape=partialRectangle;collapsible=0;dropTarget=0;pointerEvents=0;fillColor=none;top=0;left=0;bottom=0;right=0;points=[[0,0.5],[1,0.5]];portConstraint=eastwest;fontColor=#000000;" parent="JrACWeJc-KHIJ33elT-4-34" vertex="1">
                    <mxGeometry y="80" width="180" height="20" as="geometry"/>
                </mxCell>
                <mxCell id="JrACWeJc-KHIJ33elT-4-42" value="" style="shape=partialRectangle;connectable=0;fillColor=none;top=0;left=0;bottom=0;right=0;editable=1;overflow=hidden;fontColor=#000000;" parent="JrACWeJc-KHIJ33elT-4-41" vertex="1">
                    <mxGeometry width="30" height="20" as="geometry"/>
                </mxCell>
                <mxCell id="JrACWeJc-KHIJ33elT-4-43" value="- " style="shape=partialRectangle;connectable=0;fillColor=none;top=0;left=0;bottom=1;right=0;align=left;spacingLeft=6;overflow=hidden;fontColor=#000000;strokeColor=#000000;" parent="JrACWeJc-KHIJ33elT-4-41" vertex="1">
                    <mxGeometry x="30" width="150" height="20" as="geometry"/>
                </mxCell>
                <mxCell id="JrACWeJc-KHIJ33elT-4-44" value="" style="shape=partialRectangle;collapsible=0;dropTarget=0;pointerEvents=0;fillColor=none;top=0;left=0;bottom=0;right=0;points=[[0,0.5],[1,0.5]];portConstraint=eastwest;fontColor=#000000;" parent="JrACWeJc-KHIJ33elT-4-34" vertex="1">
                    <mxGeometry y="100" width="180" height="140" as="geometry"/>
                </mxCell>
                <mxCell id="JrACWeJc-KHIJ33elT-4-45" value="" style="shape=partialRectangle;connectable=0;fillColor=none;top=0;left=0;bottom=0;right=0;editable=1;overflow=hidden;fontColor=#000000;" parent="JrACWeJc-KHIJ33elT-4-44" vertex="1">
                    <mxGeometry width="30" height="140" as="geometry"/>
                </mxCell>
                <mxCell id="JrACWeJc-KHIJ33elT-4-46" value="+ EventMonth&#10;+&#10;+" style="shape=partialRectangle;connectable=0;fillColor=none;top=0;left=0;bottom=0;right=0;align=left;spacingLeft=6;overflow=hidden;fontColor=#000000;" parent="JrACWeJc-KHIJ33elT-4-44" vertex="1">
                    <mxGeometry x="30" width="150" height="140" as="geometry"/>
                </mxCell>
                <mxCell id="JrACWeJc-KHIJ33elT-4-47" value="Schedule" style="shape=table;startSize=30;container=1;collapsible=1;childLayout=tableLayout;fixedRows=1;rowLines=0;fontStyle=1;align=center;resizeLast=1;strokeColor=#000000;fontColor=#FFFFFF;" parent="JrACWeJc-KHIJ33elT-4-1" vertex="1">
                    <mxGeometry x="700" y="340" width="180" height="260" as="geometry"/>
                </mxCell>
                <mxCell id="JrACWeJc-KHIJ33elT-4-48" value="" style="shape=partialRectangle;collapsible=0;dropTarget=0;pointerEvents=0;fillColor=none;top=0;left=0;bottom=1;right=0;points=[[0,0.5],[1,0.5]];portConstraint=eastwest;" parent="JrACWeJc-KHIJ33elT-4-47" vertex="1">
                    <mxGeometry y="30" width="180" height="30" as="geometry"/>
                </mxCell>
                <mxCell id="JrACWeJc-KHIJ33elT-4-49" value="PK" style="shape=partialRectangle;connectable=0;fillColor=none;top=0;left=0;bottom=1;right=0;fontStyle=1;overflow=hidden;fontColor=#000000;strokeColor=#000000;" parent="JrACWeJc-KHIJ33elT-4-48" vertex="1">
                    <mxGeometry width="30" height="30" as="geometry"/>
                </mxCell>
                <mxCell id="JrACWeJc-KHIJ33elT-4-50" value="+ Schedule-Id" style="shape=partialRectangle;connectable=0;fillColor=none;top=0;left=0;bottom=1;right=0;align=left;spacingLeft=6;fontStyle=1;overflow=hidden;fontColor=#000000;strokeColor=#000000;strokeWidth=1;perimeterSpacing=1;shadow=0;sketch=0;" parent="JrACWeJc-KHIJ33elT-4-48" vertex="1">
                    <mxGeometry x="30" width="150" height="30" as="geometry"/>
                </mxCell>
                <mxCell id="JrACWeJc-KHIJ33elT-4-51" value="" style="shape=partialRectangle;collapsible=0;dropTarget=0;pointerEvents=0;fillColor=none;top=0;left=0;bottom=0;right=0;points=[[0,0.5],[1,0.5]];portConstraint=eastwest;fontColor=#000000;" parent="JrACWeJc-KHIJ33elT-4-47" vertex="1">
                    <mxGeometry y="60" width="180" height="20" as="geometry"/>
                </mxCell>
                <mxCell id="JrACWeJc-KHIJ33elT-4-52" value="FK" style="shape=partialRectangle;connectable=0;fillColor=none;top=0;left=0;bottom=1;right=0;editable=1;overflow=hidden;fontColor=#000000;fontStyle=1;strokeColor=#000000;" parent="JrACWeJc-KHIJ33elT-4-51" vertex="1">
                    <mxGeometry width="30" height="20" as="geometry"/>
                </mxCell>
                <mxCell id="JrACWeJc-KHIJ33elT-4-53" value="+ &#10;" style="shape=partialRectangle;connectable=0;fillColor=none;top=0;left=0;bottom=1;right=0;align=left;spacingLeft=6;overflow=hidden;fontColor=#000000;strokeColor=#000000;" parent="JrACWeJc-KHIJ33elT-4-51" vertex="1">
                    <mxGeometry x="30" width="150" height="20" as="geometry"/>
                </mxCell>
                <mxCell id="JrACWeJc-KHIJ33elT-4-54" value="" style="shape=partialRectangle;collapsible=0;dropTarget=0;pointerEvents=0;fillColor=none;top=0;left=0;bottom=0;right=0;points=[[0,0.5],[1,0.5]];portConstraint=eastwest;fontColor=#000000;" parent="JrACWeJc-KHIJ33elT-4-47" vertex="1">
                    <mxGeometry y="80" width="180" height="20" as="geometry"/>
                </mxCell>
                <mxCell id="JrACWeJc-KHIJ33elT-4-55" value="" style="shape=partialRectangle;connectable=0;fillColor=none;top=0;left=0;bottom=0;right=0;editable=1;overflow=hidden;fontColor=#000000;" parent="JrACWeJc-KHIJ33elT-4-54" vertex="1">
                    <mxGeometry width="30" height="20" as="geometry"/>
                </mxCell>
                <mxCell id="JrACWeJc-KHIJ33elT-4-56" value="- " style="shape=partialRectangle;connectable=0;fillColor=none;top=0;left=0;bottom=1;right=0;align=left;spacingLeft=6;overflow=hidden;fontColor=#000000;strokeColor=#000000;" parent="JrACWeJc-KHIJ33elT-4-54" vertex="1">
                    <mxGeometry x="30" width="150" height="20" as="geometry"/>
                </mxCell>
                <mxCell id="JrACWeJc-KHIJ33elT-4-57" value="" style="shape=partialRectangle;collapsible=0;dropTarget=0;pointerEvents=0;fillColor=none;top=0;left=0;bottom=0;right=0;points=[[0,0.5],[1,0.5]];portConstraint=eastwest;fontColor=#000000;" parent="JrACWeJc-KHIJ33elT-4-47" vertex="1">
                    <mxGeometry y="100" width="180" height="140" as="geometry"/>
                </mxCell>
                <mxCell id="JrACWeJc-KHIJ33elT-4-58" value="" style="shape=partialRectangle;connectable=0;fillColor=none;top=0;left=0;bottom=0;right=0;editable=1;overflow=hidden;fontColor=#000000;" parent="JrACWeJc-KHIJ33elT-4-57" vertex="1">
                    <mxGeometry width="30" height="140" as="geometry"/>
                </mxCell>
                <mxCell id="JrACWeJc-KHIJ33elT-4-59" value="+&#10;+&#10;+" style="shape=partialRectangle;connectable=0;fillColor=none;top=0;left=0;bottom=0;right=0;align=left;spacingLeft=6;overflow=hidden;fontColor=#000000;" parent="JrACWeJc-KHIJ33elT-4-57" vertex="1">
                    <mxGeometry x="30" width="150" height="140" as="geometry"/>
                </mxCell>
                <mxCell id="JrACWeJc-KHIJ33elT-4-60" style="edgeStyle=orthogonalEdgeStyle;rounded=0;orthogonalLoop=1;jettySize=auto;html=1;exitX=0.5;exitY=1;exitDx=0;exitDy=0;startArrow=ERoneToMany;startFill=0;startSize=9;endSize=9;strokeWidth=1;strokeColor=#000000;entryX=0.75;entryY=1;entryDx=0;entryDy=0;" parent="JrACWeJc-KHIJ33elT-4-1" source="JrACWeJc-KHIJ33elT-4-61" target="JrACWeJc-KHIJ33elT-4-101" edge="1">
                    <mxGeometry relative="1" as="geometry">
                        <Array as="points">
                            <mxPoint x="510" y="840"/>
                            <mxPoint x="-170" y="840"/>
                            <mxPoint x="-170" y="450"/>
                            <mxPoint x="-245" y="450"/>
                        </Array>
                    </mxGeometry>
                </mxCell>
                <mxCell id="JrACWeJc-KHIJ33elT-4-61" value="Mentees" style="shape=table;startSize=30;container=1;collapsible=1;childLayout=tableLayout;fixedRows=1;rowLines=0;fontStyle=1;align=center;resizeLast=1;strokeColor=#000000;fontColor=#FFFFFF;" parent="JrACWeJc-KHIJ33elT-4-1" vertex="1">
                    <mxGeometry x="420" y="410" width="180" height="260" as="geometry"/>
                </mxCell>
                <mxCell id="JrACWeJc-KHIJ33elT-4-62" value="" style="shape=partialRectangle;collapsible=0;dropTarget=0;pointerEvents=0;fillColor=none;top=0;left=0;bottom=1;right=0;points=[[0,0.5],[1,0.5]];portConstraint=eastwest;" parent="JrACWeJc-KHIJ33elT-4-61" vertex="1">
                    <mxGeometry y="30" width="180" height="30" as="geometry"/>
                </mxCell>
                <mxCell id="JrACWeJc-KHIJ33elT-4-63" value="PK" style="shape=partialRectangle;connectable=0;fillColor=none;top=0;left=0;bottom=1;right=0;fontStyle=1;overflow=hidden;fontColor=#000000;strokeColor=#000000;" parent="JrACWeJc-KHIJ33elT-4-62" vertex="1">
                    <mxGeometry width="30" height="30" as="geometry"/>
                </mxCell>
                <mxCell id="JrACWeJc-KHIJ33elT-4-64" value="+ MenteesUsername" style="shape=partialRectangle;connectable=0;fillColor=none;top=0;left=0;bottom=1;right=0;align=left;spacingLeft=6;fontStyle=1;overflow=hidden;fontColor=#000000;strokeColor=#000000;strokeWidth=1;perimeterSpacing=1;shadow=0;sketch=0;" parent="JrACWeJc-KHIJ33elT-4-62" vertex="1">
                    <mxGeometry x="30" width="150" height="30" as="geometry"/>
                </mxCell>
                <mxCell id="JrACWeJc-KHIJ33elT-4-65" value="" style="shape=partialRectangle;collapsible=0;dropTarget=0;pointerEvents=0;fillColor=none;top=0;left=0;bottom=0;right=0;points=[[0,0.5],[1,0.5]];portConstraint=eastwest;fontColor=#000000;" parent="JrACWeJc-KHIJ33elT-4-61" vertex="1">
                    <mxGeometry y="60" width="180" height="20" as="geometry"/>
                </mxCell>
                <mxCell id="JrACWeJc-KHIJ33elT-4-66" value="FK" style="shape=partialRectangle;connectable=0;fillColor=none;top=0;left=0;bottom=1;right=0;editable=1;overflow=hidden;fontColor=#000000;fontStyle=1;strokeColor=#000000;" parent="JrACWeJc-KHIJ33elT-4-65" vertex="1">
                    <mxGeometry width="30" height="20" as="geometry"/>
                </mxCell>
                <mxCell id="JrACWeJc-KHIJ33elT-4-67" value="+ &#10;" style="shape=partialRectangle;connectable=0;fillColor=none;top=0;left=0;bottom=1;right=0;align=left;spacingLeft=6;overflow=hidden;fontColor=#000000;strokeColor=#000000;" parent="JrACWeJc-KHIJ33elT-4-65" vertex="1">
                    <mxGeometry x="30" width="150" height="20" as="geometry"/>
                </mxCell>
                <mxCell id="JrACWeJc-KHIJ33elT-4-68" value="" style="shape=partialRectangle;collapsible=0;dropTarget=0;pointerEvents=0;fillColor=none;top=0;left=0;bottom=0;right=0;points=[[0,0.5],[1,0.5]];portConstraint=eastwest;fontColor=#000000;" parent="JrACWeJc-KHIJ33elT-4-61" vertex="1">
                    <mxGeometry y="80" width="180" height="20" as="geometry"/>
                </mxCell>
                <mxCell id="JrACWeJc-KHIJ33elT-4-69" value="" style="shape=partialRectangle;connectable=0;fillColor=none;top=0;left=0;bottom=0;right=0;editable=1;overflow=hidden;fontColor=#000000;" parent="JrACWeJc-KHIJ33elT-4-68" vertex="1">
                    <mxGeometry width="30" height="20" as="geometry"/>
                </mxCell>
                <mxCell id="JrACWeJc-KHIJ33elT-4-70" value="- " style="shape=partialRectangle;connectable=0;fillColor=none;top=0;left=0;bottom=1;right=0;align=left;spacingLeft=6;overflow=hidden;fontColor=#000000;strokeColor=#000000;" parent="JrACWeJc-KHIJ33elT-4-68" vertex="1">
                    <mxGeometry x="30" width="150" height="20" as="geometry"/>
                </mxCell>
                <mxCell id="JrACWeJc-KHIJ33elT-4-71" value="" style="shape=partialRectangle;collapsible=0;dropTarget=0;pointerEvents=0;fillColor=none;top=0;left=0;bottom=0;right=0;points=[[0,0.5],[1,0.5]];portConstraint=eastwest;fontColor=#000000;" parent="JrACWeJc-KHIJ33elT-4-61" vertex="1">
                    <mxGeometry y="100" width="180" height="140" as="geometry"/>
                </mxCell>
                <mxCell id="JrACWeJc-KHIJ33elT-4-72" value="" style="shape=partialRectangle;connectable=0;fillColor=none;top=0;left=0;bottom=0;right=0;editable=1;overflow=hidden;fontColor=#000000;" parent="JrACWeJc-KHIJ33elT-4-71" vertex="1">
                    <mxGeometry width="30" height="140" as="geometry"/>
                </mxCell>
                <mxCell id="JrACWeJc-KHIJ33elT-4-73" value="+&#10;+&#10;+" style="shape=partialRectangle;connectable=0;fillColor=none;top=0;left=0;bottom=0;right=0;align=left;spacingLeft=6;overflow=hidden;fontColor=#000000;" parent="JrACWeJc-KHIJ33elT-4-71" vertex="1">
                    <mxGeometry x="30" width="150" height="140" as="geometry"/>
                </mxCell>
                <mxCell id="JrACWeJc-KHIJ33elT-4-74" value="Matches" style="shape=table;startSize=30;container=1;collapsible=1;childLayout=tableLayout;fixedRows=1;rowLines=0;fontStyle=1;align=center;resizeLast=1;strokeColor=#000000;fontColor=#FFFFFF;" parent="JrACWeJc-KHIJ33elT-4-1" vertex="1">
                    <mxGeometry x="110" y="540" width="180" height="280" as="geometry"/>
                </mxCell>
                <mxCell id="JrACWeJc-KHIJ33elT-4-75" value="" style="shape=partialRectangle;collapsible=0;dropTarget=0;pointerEvents=0;fillColor=none;top=0;left=0;bottom=1;right=0;points=[[0,0.5],[1,0.5]];portConstraint=eastwest;" parent="JrACWeJc-KHIJ33elT-4-74" vertex="1">
                    <mxGeometry y="30" width="180" height="30" as="geometry"/>
                </mxCell>
                <mxCell id="JrACWeJc-KHIJ33elT-4-76" value="PK" style="shape=partialRectangle;connectable=0;fillColor=none;top=0;left=0;bottom=1;right=0;fontStyle=1;overflow=hidden;fontColor=#000000;strokeColor=#000000;" parent="JrACWeJc-KHIJ33elT-4-75" vertex="1">
                    <mxGeometry width="30" height="30" as="geometry"/>
                </mxCell>
                <mxCell id="JrACWeJc-KHIJ33elT-4-77" value="Match-Id" style="shape=partialRectangle;connectable=0;fillColor=none;top=0;left=0;bottom=1;right=0;align=left;spacingLeft=6;fontStyle=1;overflow=hidden;fontColor=#000000;strokeColor=#000000;strokeWidth=1;perimeterSpacing=1;shadow=0;sketch=0;" parent="JrACWeJc-KHIJ33elT-4-75" vertex="1">
                    <mxGeometry x="30" width="150" height="30" as="geometry"/>
                </mxCell>
                <mxCell id="JrACWeJc-KHIJ33elT-4-78" value="" style="shape=partialRectangle;collapsible=0;dropTarget=0;pointerEvents=0;fillColor=none;top=0;left=0;bottom=0;right=0;points=[[0,0.5],[1,0.5]];portConstraint=eastwest;fontColor=#000000;" parent="JrACWeJc-KHIJ33elT-4-74" vertex="1">
                    <mxGeometry y="60" width="180" height="20" as="geometry"/>
                </mxCell>
                <mxCell id="JrACWeJc-KHIJ33elT-4-79" value="FK" style="shape=partialRectangle;connectable=0;fillColor=none;top=0;left=0;bottom=1;right=0;editable=1;overflow=hidden;fontColor=#000000;fontStyle=1;strokeColor=#000000;" parent="JrACWeJc-KHIJ33elT-4-78" vertex="1">
                    <mxGeometry width="30" height="20" as="geometry"/>
                </mxCell>
                <mxCell id="JrACWeJc-KHIJ33elT-4-80" value="+ &#10;" style="shape=partialRectangle;connectable=0;fillColor=none;top=0;left=0;bottom=1;right=0;align=left;spacingLeft=6;overflow=hidden;fontColor=#000000;strokeColor=#000000;" parent="JrACWeJc-KHIJ33elT-4-78" vertex="1">
                    <mxGeometry x="30" width="150" height="20" as="geometry"/>
                </mxCell>
                <mxCell id="JrACWeJc-KHIJ33elT-4-81" value="" style="shape=partialRectangle;collapsible=0;dropTarget=0;pointerEvents=0;fillColor=none;top=0;left=0;bottom=0;right=0;points=[[0,0.5],[1,0.5]];portConstraint=eastwest;fontColor=#000000;" parent="JrACWeJc-KHIJ33elT-4-74" vertex="1">
                    <mxGeometry y="80" width="180" height="20" as="geometry"/>
                </mxCell>
                <mxCell id="JrACWeJc-KHIJ33elT-4-82" value="" style="shape=partialRectangle;connectable=0;fillColor=none;top=0;left=0;bottom=0;right=0;editable=1;overflow=hidden;fontColor=#000000;" parent="JrACWeJc-KHIJ33elT-4-81" vertex="1">
                    <mxGeometry width="30" height="20" as="geometry"/>
                </mxCell>
                <mxCell id="JrACWeJc-KHIJ33elT-4-83" value="- " style="shape=partialRectangle;connectable=0;fillColor=none;top=0;left=0;bottom=1;right=0;align=left;spacingLeft=6;overflow=hidden;fontColor=#000000;strokeColor=#000000;" parent="JrACWeJc-KHIJ33elT-4-81" vertex="1">
                    <mxGeometry x="30" width="150" height="20" as="geometry"/>
                </mxCell>
                <mxCell id="JrACWeJc-KHIJ33elT-4-84" value="" style="shape=partialRectangle;collapsible=0;dropTarget=0;pointerEvents=0;fillColor=none;top=0;left=0;bottom=0;right=0;points=[[0,0.5],[1,0.5]];portConstraint=eastwest;fontColor=#000000;" parent="JrACWeJc-KHIJ33elT-4-74" vertex="1">
                    <mxGeometry y="100" width="180" height="180" as="geometry"/>
                </mxCell>
                <mxCell id="JrACWeJc-KHIJ33elT-4-85" value="" style="shape=partialRectangle;connectable=0;fillColor=none;top=0;left=0;bottom=0;right=0;editable=1;overflow=hidden;fontColor=#000000;" parent="JrACWeJc-KHIJ33elT-4-84" vertex="1">
                    <mxGeometry width="30" height="180" as="geometry"/>
                </mxCell>
                <mxCell id="JrACWeJc-KHIJ33elT-4-86" value="+&#10;+&#10;+" style="shape=partialRectangle;connectable=0;fillColor=none;top=0;left=0;bottom=0;right=0;align=left;spacingLeft=6;overflow=hidden;fontColor=#000000;" parent="JrACWeJc-KHIJ33elT-4-84" vertex="1">
                    <mxGeometry x="30" width="150" height="180" as="geometry"/>
                </mxCell>
                <mxCell id="JrACWeJc-KHIJ33elT-4-87" style="edgeStyle=orthogonalEdgeStyle;rounded=0;orthogonalLoop=1;jettySize=auto;html=1;entryX=0.5;entryY=1;entryDx=0;entryDy=0;startArrow=ERoneToMany;startFill=0;startSize=9;endSize=9;strokeColor=#000000;strokeWidth=1;exitX=0.558;exitY=1;exitDx=0;exitDy=0;exitPerimeter=0;" parent="JrACWeJc-KHIJ33elT-4-1" source="JrACWeJc-KHIJ33elT-4-98" target="JrACWeJc-KHIJ33elT-4-101" edge="1">
                    <mxGeometry relative="1" as="geometry"/>
                </mxCell>
                <mxCell id="JrACWeJc-KHIJ33elT-4-88" value="Mentors" style="shape=table;startSize=30;container=1;collapsible=1;childLayout=tableLayout;fixedRows=1;rowLines=0;fontStyle=1;align=center;resizeLast=1;strokeColor=#000000;fontColor=#FFFFFF;" parent="JrACWeJc-KHIJ33elT-4-1" vertex="1">
                    <mxGeometry x="-140" y="310" width="180" height="240" as="geometry"/>
                </mxCell>
                <mxCell id="JrACWeJc-KHIJ33elT-4-89" value="" style="shape=partialRectangle;collapsible=0;dropTarget=0;pointerEvents=0;fillColor=none;top=0;left=0;bottom=1;right=0;points=[[0,0.5],[1,0.5]];portConstraint=eastwest;" parent="JrACWeJc-KHIJ33elT-4-88" vertex="1">
                    <mxGeometry y="30" width="180" height="30" as="geometry"/>
                </mxCell>
                <mxCell id="JrACWeJc-KHIJ33elT-4-90" value="PK" style="shape=partialRectangle;connectable=0;fillColor=none;top=0;left=0;bottom=1;right=0;fontStyle=1;overflow=hidden;fontColor=#000000;strokeColor=#000000;" parent="JrACWeJc-KHIJ33elT-4-89" vertex="1">
                    <mxGeometry width="30" height="30" as="geometry"/>
                </mxCell>
                <mxCell id="JrACWeJc-KHIJ33elT-4-91" value="+ MentorsUsername" style="shape=partialRectangle;connectable=0;fillColor=none;top=0;left=0;bottom=1;right=0;align=left;spacingLeft=6;fontStyle=1;overflow=hidden;fontColor=#000000;strokeColor=#000000;strokeWidth=1;perimeterSpacing=1;shadow=0;sketch=0;" parent="JrACWeJc-KHIJ33elT-4-89" vertex="1">
                    <mxGeometry x="30" width="150" height="30" as="geometry"/>
                </mxCell>
                <mxCell id="JrACWeJc-KHIJ33elT-4-92" value="" style="shape=partialRectangle;collapsible=0;dropTarget=0;pointerEvents=0;fillColor=none;top=0;left=0;bottom=0;right=0;points=[[0,0.5],[1,0.5]];portConstraint=eastwest;fontColor=#000000;" parent="JrACWeJc-KHIJ33elT-4-88" vertex="1">
                    <mxGeometry y="60" width="180" height="20" as="geometry"/>
                </mxCell>
                <mxCell id="JrACWeJc-KHIJ33elT-4-93" value="FK" style="shape=partialRectangle;connectable=0;fillColor=none;top=0;left=0;bottom=1;right=0;editable=1;overflow=hidden;fontColor=#000000;fontStyle=1;strokeColor=#000000;" parent="JrACWeJc-KHIJ33elT-4-92" vertex="1">
                    <mxGeometry width="30" height="20" as="geometry"/>
                </mxCell>
                <mxCell id="JrACWeJc-KHIJ33elT-4-94" value="+ &#10;" style="shape=partialRectangle;connectable=0;fillColor=none;top=0;left=0;bottom=1;right=0;align=left;spacingLeft=6;overflow=hidden;fontColor=#000000;strokeColor=#000000;" parent="JrACWeJc-KHIJ33elT-4-92" vertex="1">
                    <mxGeometry x="30" width="150" height="20" as="geometry"/>
                </mxCell>
                <mxCell id="JrACWeJc-KHIJ33elT-4-95" value="" style="shape=partialRectangle;collapsible=0;dropTarget=0;pointerEvents=0;fillColor=none;top=0;left=0;bottom=0;right=0;points=[[0,0.5],[1,0.5]];portConstraint=eastwest;fontColor=#000000;" parent="JrACWeJc-KHIJ33elT-4-88" vertex="1">
                    <mxGeometry y="80" width="180" height="20" as="geometry"/>
                </mxCell>
                <mxCell id="JrACWeJc-KHIJ33elT-4-96" value="" style="shape=partialRectangle;connectable=0;fillColor=none;top=0;left=0;bottom=0;right=0;editable=1;overflow=hidden;fontColor=#000000;" parent="JrACWeJc-KHIJ33elT-4-95" vertex="1">
                    <mxGeometry width="30" height="20" as="geometry"/>
                </mxCell>
                <mxCell id="JrACWeJc-KHIJ33elT-4-97" value="- " style="shape=partialRectangle;connectable=0;fillColor=none;top=0;left=0;bottom=1;right=0;align=left;spacingLeft=6;overflow=hidden;fontColor=#000000;strokeColor=#000000;" parent="JrACWeJc-KHIJ33elT-4-95" vertex="1">
                    <mxGeometry x="30" width="150" height="20" as="geometry"/>
                </mxCell>
                <mxCell id="JrACWeJc-KHIJ33elT-4-98" value="" style="shape=partialRectangle;collapsible=0;dropTarget=0;pointerEvents=0;fillColor=none;top=0;left=0;bottom=0;right=0;points=[[0,0.5],[1,0.5]];portConstraint=eastwest;fontColor=#000000;" parent="JrACWeJc-KHIJ33elT-4-88" vertex="1">
                    <mxGeometry y="100" width="180" height="140" as="geometry"/>
                </mxCell>
                <mxCell id="JrACWeJc-KHIJ33elT-4-99" value="" style="shape=partialRectangle;connectable=0;fillColor=none;top=0;left=0;bottom=0;right=0;editable=1;overflow=hidden;fontColor=#000000;" parent="JrACWeJc-KHIJ33elT-4-98" vertex="1">
                    <mxGeometry width="30" height="140" as="geometry"/>
                </mxCell>
                <mxCell id="JrACWeJc-KHIJ33elT-4-100" value="+&#10;+&#10;+" style="shape=partialRectangle;connectable=0;fillColor=none;top=0;left=0;bottom=0;right=0;align=left;spacingLeft=6;overflow=hidden;fontColor=#000000;" parent="JrACWeJc-KHIJ33elT-4-98" vertex="1">
                    <mxGeometry x="30" width="150" height="140" as="geometry"/>
                </mxCell>
                <mxCell id="JrACWeJc-KHIJ33elT-4-101" value="Pathways" style="shape=table;startSize=30;container=1;collapsible=1;childLayout=tableLayout;fixedRows=1;rowLines=0;fontStyle=1;align=center;resizeLast=1;strokeColor=#000000;fontColor=#FFFFFF;" parent="JrACWeJc-KHIJ33elT-4-1" vertex="1">
                    <mxGeometry x="-380" y="140" width="180" height="280" as="geometry"/>
                </mxCell>
                <mxCell id="JrACWeJc-KHIJ33elT-4-102" value="" style="shape=partialRectangle;collapsible=0;dropTarget=0;pointerEvents=0;fillColor=none;top=0;left=0;bottom=1;right=0;points=[[0,0.5],[1,0.5]];portConstraint=eastwest;" parent="JrACWeJc-KHIJ33elT-4-101" vertex="1">
                    <mxGeometry y="30" width="180" height="30" as="geometry"/>
                </mxCell>
                <mxCell id="JrACWeJc-KHIJ33elT-4-103" value="PK" style="shape=partialRectangle;connectable=0;fillColor=none;top=0;left=0;bottom=1;right=0;fontStyle=1;overflow=hidden;fontColor=#000000;strokeColor=#000000;" parent="JrACWeJc-KHIJ33elT-4-102" vertex="1">
                    <mxGeometry width="30" height="30" as="geometry"/>
                </mxCell>
                <mxCell id="JrACWeJc-KHIJ33elT-4-104" value="+ Pathway-Id" style="shape=partialRectangle;connectable=0;fillColor=none;top=0;left=0;bottom=1;right=0;align=left;spacingLeft=6;fontStyle=1;overflow=hidden;fontColor=#000000;strokeColor=#000000;strokeWidth=1;perimeterSpacing=1;shadow=0;sketch=0;" parent="JrACWeJc-KHIJ33elT-4-102" vertex="1">
                    <mxGeometry x="30" width="150" height="30" as="geometry"/>
                </mxCell>
                <mxCell id="JrACWeJc-KHIJ33elT-4-105" value="" style="shape=partialRectangle;collapsible=0;dropTarget=0;pointerEvents=0;fillColor=none;top=0;left=0;bottom=0;right=0;points=[[0,0.5],[1,0.5]];portConstraint=eastwest;fontColor=#000000;" parent="JrACWeJc-KHIJ33elT-4-101" vertex="1">
                    <mxGeometry y="60" width="180" height="20" as="geometry"/>
                </mxCell>
                <mxCell id="JrACWeJc-KHIJ33elT-4-106" value="FK" style="shape=partialRectangle;connectable=0;fillColor=none;top=0;left=0;bottom=1;right=0;editable=1;overflow=hidden;fontColor=#000000;fontStyle=1;strokeColor=#000000;" parent="JrACWeJc-KHIJ33elT-4-105" vertex="1">
                    <mxGeometry width="30" height="20" as="geometry"/>
                </mxCell>
                <mxCell id="JrACWeJc-KHIJ33elT-4-107" value="+ &#10;" style="shape=partialRectangle;connectable=0;fillColor=none;top=0;left=0;bottom=1;right=0;align=left;spacingLeft=6;overflow=hidden;fontColor=#000000;strokeColor=#000000;" parent="JrACWeJc-KHIJ33elT-4-105" vertex="1">
                    <mxGeometry x="30" width="150" height="20" as="geometry"/>
                </mxCell>
                <mxCell id="JrACWeJc-KHIJ33elT-4-108" value="" style="shape=partialRectangle;collapsible=0;dropTarget=0;pointerEvents=0;fillColor=none;top=0;left=0;bottom=0;right=0;points=[[0,0.5],[1,0.5]];portConstraint=eastwest;fontColor=#000000;" parent="JrACWeJc-KHIJ33elT-4-101" vertex="1">
                    <mxGeometry y="80" width="180" height="20" as="geometry"/>
                </mxCell>
                <mxCell id="JrACWeJc-KHIJ33elT-4-109" value="" style="shape=partialRectangle;connectable=0;fillColor=none;top=0;left=0;bottom=0;right=0;editable=1;overflow=hidden;fontColor=#000000;" parent="JrACWeJc-KHIJ33elT-4-108" vertex="1">
                    <mxGeometry width="30" height="20" as="geometry"/>
                </mxCell>
                <mxCell id="JrACWeJc-KHIJ33elT-4-110" value="- " style="shape=partialRectangle;connectable=0;top=0;left=0;bottom=1;right=0;align=left;spacingLeft=6;overflow=hidden;fillColor=none;strokeColor=#000000;fontColor=#000000;" parent="JrACWeJc-KHIJ33elT-4-108" vertex="1">
                    <mxGeometry x="30" width="150" height="20" as="geometry"/>
                </mxCell>
                <mxCell id="JrACWeJc-KHIJ33elT-4-111" value="" style="shape=partialRectangle;collapsible=0;dropTarget=0;pointerEvents=0;fillColor=none;top=0;left=0;bottom=0;right=0;points=[[0,0.5],[1,0.5]];portConstraint=eastwest;fontColor=#000000;" parent="JrACWeJc-KHIJ33elT-4-101" vertex="1">
                    <mxGeometry y="100" width="180" height="140" as="geometry"/>
                </mxCell>
                <mxCell id="JrACWeJc-KHIJ33elT-4-112" value="" style="shape=partialRectangle;connectable=0;fillColor=none;top=0;left=0;bottom=0;right=0;editable=1;overflow=hidden;fontColor=#000000;" parent="JrACWeJc-KHIJ33elT-4-111" vertex="1">
                    <mxGeometry width="30" height="140" as="geometry"/>
                </mxCell>
                <mxCell id="JrACWeJc-KHIJ33elT-4-113" value="+&#10;+&#10;+" style="shape=partialRectangle;connectable=0;fillColor=none;top=0;left=0;bottom=0;right=0;align=left;spacingLeft=6;overflow=hidden;fontColor=#000000;" parent="JrACWeJc-KHIJ33elT-4-111" vertex="1">
                    <mxGeometry x="30" width="150" height="140" as="geometry"/>
                </mxCell>
            </root>
        </mxGraphModel>
    </diagram>
    <diagram name="Page-2" id="DkHuuCAus2XgI_NWxYvj">
        <mxGraphModel dx="2474" dy="-52" grid="1" gridSize="10" guides="1" tooltips="1" connect="1" arrows="1" fold="1" page="1" pageScale="1" pageWidth="1100" pageHeight="850" background="#ffffff" math="0" shadow="0">
            <root>
                <mxCell id="cMwFlmxIVSVSV2WOh9_3-0"/>
                <mxCell id="cMwFlmxIVSVSV2WOh9_3-1" parent="cMwFlmxIVSVSV2WOh9_3-0"/>
                <mxCell id="cMwFlmxIVSVSV2WOh9_3-153" value="OrderBridgeTable" style="shape=table;startSize=30;container=1;collapsible=1;childLayout=tableLayout;fixedRows=1;rowLines=0;fontStyle=1;align=center;resizeLast=1;strokeColor=#000000;fontColor=#FFFFFF;" parent="cMwFlmxIVSVSV2WOh9_3-1" vertex="1">
                    <mxGeometry x="10" y="940" width="180" height="240" as="geometry"/>
                </mxCell>
                <mxCell id="cMwFlmxIVSVSV2WOh9_3-154" value="" style="shape=partialRectangle;collapsible=0;dropTarget=0;pointerEvents=0;fillColor=none;top=0;left=0;bottom=1;right=0;points=[[0,0.5],[1,0.5]];portConstraint=eastwest;" parent="cMwFlmxIVSVSV2WOh9_3-153" vertex="1">
                    <mxGeometry y="30" width="180" height="30" as="geometry"/>
                </mxCell>
                <mxCell id="cMwFlmxIVSVSV2WOh9_3-155" value="PK" style="shape=partialRectangle;connectable=0;fillColor=none;top=0;left=0;bottom=1;right=0;fontStyle=1;overflow=hidden;fontColor=#000000;strokeColor=#000000;" parent="cMwFlmxIVSVSV2WOh9_3-154" vertex="1">
                    <mxGeometry width="30" height="30" as="geometry"/>
                </mxCell>
                <mxCell id="cMwFlmxIVSVSV2WOh9_3-156" value="+ OrderNumber" style="shape=partialRectangle;connectable=0;fillColor=none;top=0;left=0;bottom=1;right=0;align=left;spacingLeft=6;fontStyle=1;overflow=hidden;fontColor=#000000;strokeColor=#000000;strokeWidth=1;perimeterSpacing=1;shadow=0;sketch=0;" parent="cMwFlmxIVSVSV2WOh9_3-154" vertex="1">
                    <mxGeometry x="30" width="150" height="30" as="geometry"/>
                </mxCell>
                <mxCell id="cMwFlmxIVSVSV2WOh9_3-157" value="" style="shape=partialRectangle;collapsible=0;dropTarget=0;pointerEvents=0;fillColor=none;top=0;left=0;bottom=0;right=0;points=[[0,0.5],[1,0.5]];portConstraint=eastwest;fontColor=#000000;" parent="cMwFlmxIVSVSV2WOh9_3-153" vertex="1">
                    <mxGeometry y="60" width="180" height="20" as="geometry"/>
                </mxCell>
                <mxCell id="cMwFlmxIVSVSV2WOh9_3-158" value="FK" style="shape=partialRectangle;connectable=0;fillColor=none;top=0;left=0;bottom=1;right=0;editable=1;overflow=hidden;fontColor=#000000;fontStyle=1;strokeColor=#000000;" parent="cMwFlmxIVSVSV2WOh9_3-157" vertex="1">
                    <mxGeometry width="30" height="20" as="geometry"/>
                </mxCell>
                <mxCell id="cMwFlmxIVSVSV2WOh9_3-159" value="+ CustomerID" style="shape=partialRectangle;connectable=0;fillColor=none;top=0;left=0;bottom=1;right=0;align=left;spacingLeft=6;overflow=hidden;fontColor=#000000;strokeColor=#000000;" parent="cMwFlmxIVSVSV2WOh9_3-157" vertex="1">
                    <mxGeometry x="30" width="150" height="20" as="geometry"/>
                </mxCell>
                <mxCell id="cMwFlmxIVSVSV2WOh9_3-160" value="" style="shape=partialRectangle;collapsible=0;dropTarget=0;pointerEvents=0;fillColor=none;top=0;left=0;bottom=0;right=0;points=[[0,0.5],[1,0.5]];portConstraint=eastwest;fontColor=#000000;" parent="cMwFlmxIVSVSV2WOh9_3-153" vertex="1">
                    <mxGeometry y="80" width="180" height="20" as="geometry"/>
                </mxCell>
                <mxCell id="cMwFlmxIVSVSV2WOh9_3-161" value="" style="shape=partialRectangle;connectable=0;fillColor=none;top=0;left=0;bottom=0;right=0;editable=1;overflow=hidden;fontColor=#000000;" parent="cMwFlmxIVSVSV2WOh9_3-160" vertex="1">
                    <mxGeometry width="30" height="20" as="geometry"/>
                </mxCell>
                <mxCell id="cMwFlmxIVSVSV2WOh9_3-162" value="- " style="shape=partialRectangle;connectable=0;fillColor=none;top=0;left=0;bottom=1;right=0;align=left;spacingLeft=6;overflow=hidden;fontColor=#000000;strokeColor=#000000;" parent="cMwFlmxIVSVSV2WOh9_3-160" vertex="1">
                    <mxGeometry x="30" width="150" height="20" as="geometry"/>
                </mxCell>
                <mxCell id="cMwFlmxIVSVSV2WOh9_3-163" value="" style="shape=partialRectangle;collapsible=0;dropTarget=0;pointerEvents=0;fillColor=none;top=0;left=0;bottom=0;right=0;points=[[0,0.5],[1,0.5]];portConstraint=eastwest;fontColor=#000000;" parent="cMwFlmxIVSVSV2WOh9_3-153" vertex="1">
                    <mxGeometry y="100" width="180" height="120" as="geometry"/>
                </mxCell>
                <mxCell id="cMwFlmxIVSVSV2WOh9_3-164" value="" style="shape=partialRectangle;connectable=0;fillColor=none;top=0;left=0;bottom=0;right=0;editable=1;overflow=hidden;fontColor=#000000;" parent="cMwFlmxIVSVSV2WOh9_3-163" vertex="1">
                    <mxGeometry width="30" height="120" as="geometry"/>
                </mxCell>
                <mxCell id="cMwFlmxIVSVSV2WOh9_3-165" value="+&#10;+&#10;+" style="shape=partialRectangle;connectable=0;fillColor=none;top=0;left=0;bottom=0;right=0;align=left;spacingLeft=6;overflow=hidden;fontColor=#000000;" parent="cMwFlmxIVSVSV2WOh9_3-163" vertex="1">
                    <mxGeometry x="30" width="150" height="120" as="geometry"/>
                </mxCell>
                <mxCell id="cMwFlmxIVSVSV2WOh9_3-140" value="Customer" style="shape=table;startSize=30;container=1;collapsible=1;childLayout=tableLayout;fixedRows=1;rowLines=0;fontStyle=1;align=center;resizeLast=1;strokeColor=#000000;fontColor=#FFFFFF;" parent="cMwFlmxIVSVSV2WOh9_3-1" vertex="1">
                    <mxGeometry x="-300" y="940" width="180" height="260" as="geometry"/>
                </mxCell>
                <mxCell id="cMwFlmxIVSVSV2WOh9_3-141" value="" style="shape=partialRectangle;collapsible=0;dropTarget=0;pointerEvents=0;fillColor=none;top=0;left=0;bottom=1;right=0;points=[[0,0.5],[1,0.5]];portConstraint=eastwest;" parent="cMwFlmxIVSVSV2WOh9_3-140" vertex="1">
                    <mxGeometry y="30" width="180" height="30" as="geometry"/>
                </mxCell>
                <mxCell id="cMwFlmxIVSVSV2WOh9_3-142" value="PK" style="shape=partialRectangle;connectable=0;fillColor=none;top=0;left=0;bottom=1;right=0;fontStyle=1;overflow=hidden;fontColor=#000000;strokeColor=#000000;" parent="cMwFlmxIVSVSV2WOh9_3-141" vertex="1">
                    <mxGeometry width="30" height="30" as="geometry"/>
                </mxCell>
                <mxCell id="cMwFlmxIVSVSV2WOh9_3-143" value="+ CustomerID" style="shape=partialRectangle;connectable=0;fillColor=none;top=0;left=0;bottom=1;right=0;align=left;spacingLeft=6;fontStyle=1;overflow=hidden;fontColor=#000000;strokeColor=#000000;strokeWidth=1;perimeterSpacing=1;shadow=0;sketch=0;" parent="cMwFlmxIVSVSV2WOh9_3-141" vertex="1">
                    <mxGeometry x="30" width="150" height="30" as="geometry"/>
                </mxCell>
                <mxCell id="cMwFlmxIVSVSV2WOh9_3-144" value="" style="shape=partialRectangle;collapsible=0;dropTarget=0;pointerEvents=0;fillColor=none;top=0;left=0;bottom=0;right=0;points=[[0,0.5],[1,0.5]];portConstraint=eastwest;fontColor=#000000;" parent="cMwFlmxIVSVSV2WOh9_3-140" vertex="1">
                    <mxGeometry y="60" width="180" height="20" as="geometry"/>
                </mxCell>
                <mxCell id="cMwFlmxIVSVSV2WOh9_3-145" value="FK" style="shape=partialRectangle;connectable=0;fillColor=none;top=0;left=0;bottom=1;right=0;editable=1;overflow=hidden;fontColor=#000000;fontStyle=1;strokeColor=#000000;" parent="cMwFlmxIVSVSV2WOh9_3-144" vertex="1">
                    <mxGeometry width="30" height="20" as="geometry"/>
                </mxCell>
                <mxCell id="cMwFlmxIVSVSV2WOh9_3-146" value="+ &#10;" style="shape=partialRectangle;connectable=0;fillColor=none;top=0;left=0;bottom=1;right=0;align=left;spacingLeft=6;overflow=hidden;fontColor=#000000;strokeColor=#000000;" parent="cMwFlmxIVSVSV2WOh9_3-144" vertex="1">
                    <mxGeometry x="30" width="150" height="20" as="geometry"/>
                </mxCell>
                <mxCell id="cMwFlmxIVSVSV2WOh9_3-147" value="" style="shape=partialRectangle;collapsible=0;dropTarget=0;pointerEvents=0;fillColor=none;top=0;left=0;bottom=0;right=0;points=[[0,0.5],[1,0.5]];portConstraint=eastwest;fontColor=#000000;" parent="cMwFlmxIVSVSV2WOh9_3-140" vertex="1">
                    <mxGeometry y="80" width="180" height="20" as="geometry"/>
                </mxCell>
                <mxCell id="cMwFlmxIVSVSV2WOh9_3-148" value="" style="shape=partialRectangle;connectable=0;fillColor=none;top=0;left=0;bottom=0;right=0;editable=1;overflow=hidden;fontColor=#000000;" parent="cMwFlmxIVSVSV2WOh9_3-147" vertex="1">
                    <mxGeometry width="30" height="20" as="geometry"/>
                </mxCell>
                <mxCell id="cMwFlmxIVSVSV2WOh9_3-149" value="- " style="shape=partialRectangle;connectable=0;fillColor=none;top=0;left=0;bottom=1;right=0;align=left;spacingLeft=6;overflow=hidden;fontColor=#000000;strokeColor=#000000;" parent="cMwFlmxIVSVSV2WOh9_3-147" vertex="1">
                    <mxGeometry x="30" width="150" height="20" as="geometry"/>
                </mxCell>
                <mxCell id="cMwFlmxIVSVSV2WOh9_3-150" value="" style="shape=partialRectangle;collapsible=0;dropTarget=0;pointerEvents=0;fillColor=none;top=0;left=0;bottom=0;right=0;points=[[0,0.5],[1,0.5]];portConstraint=eastwest;fontColor=#000000;" parent="cMwFlmxIVSVSV2WOh9_3-140" vertex="1">
                    <mxGeometry y="100" width="180" height="140" as="geometry"/>
                </mxCell>
                <mxCell id="cMwFlmxIVSVSV2WOh9_3-151" value="" style="shape=partialRectangle;connectable=0;fillColor=none;top=0;left=0;bottom=0;right=0;editable=1;overflow=hidden;fontColor=#000000;" parent="cMwFlmxIVSVSV2WOh9_3-150" vertex="1">
                    <mxGeometry width="30" height="140" as="geometry"/>
                </mxCell>
                <mxCell id="cMwFlmxIVSVSV2WOh9_3-152" value="+ FName&#10;+ LName&#10;+ City" style="shape=partialRectangle;connectable=0;fillColor=none;top=0;left=0;bottom=0;right=0;align=left;spacingLeft=6;overflow=hidden;fontColor=#000000;" parent="cMwFlmxIVSVSV2WOh9_3-150" vertex="1">
                    <mxGeometry x="30" width="150" height="140" as="geometry"/>
                </mxCell>
                <mxCell id="cMwFlmxIVSVSV2WOh9_3-114" value="Shipment-Composite" style="shape=table;startSize=20;container=1;collapsible=1;childLayout=tableLayout;fixedRows=1;rowLines=0;fontStyle=1;align=center;resizeLast=1;strokeColor=#000000;fontColor=#FFFFFF;" parent="cMwFlmxIVSVSV2WOh9_3-1" vertex="1">
                    <mxGeometry x="560" y="890" width="240" height="330" as="geometry"/>
                </mxCell>
                <mxCell id="cMwFlmxIVSVSV2WOh9_3-115" value="" style="shape=partialRectangle;collapsible=0;dropTarget=0;pointerEvents=0;fillColor=none;top=0;left=0;bottom=1;right=0;points=[[0,0.5],[1,0.5]];portConstraint=eastwest;" parent="cMwFlmxIVSVSV2WOh9_3-114" vertex="1">
                    <mxGeometry y="20" width="240" height="30" as="geometry"/>
                </mxCell>
                <mxCell id="cMwFlmxIVSVSV2WOh9_3-116" value="PK, FK" style="shape=partialRectangle;connectable=0;fillColor=none;top=0;left=0;bottom=1;right=0;fontStyle=1;overflow=hidden;fontColor=#000000;strokeColor=#000000;" parent="cMwFlmxIVSVSV2WOh9_3-115" vertex="1">
                    <mxGeometry width="50" height="30" as="geometry"/>
                </mxCell>
                <mxCell id="cMwFlmxIVSVSV2WOh9_3-117" value="+ productID" style="shape=partialRectangle;connectable=0;fillColor=none;top=0;left=0;bottom=1;right=0;align=left;spacingLeft=6;fontStyle=1;overflow=hidden;fontColor=#000000;strokeColor=#000000;strokeWidth=1;perimeterSpacing=1;shadow=0;sketch=0;" parent="cMwFlmxIVSVSV2WOh9_3-115" vertex="1">
                    <mxGeometry x="50" width="190" height="30" as="geometry"/>
                </mxCell>
                <mxCell id="cMwFlmxIVSVSV2WOh9_3-118" value="" style="shape=partialRectangle;collapsible=0;dropTarget=0;pointerEvents=0;fillColor=none;top=0;left=0;bottom=0;right=0;points=[[0,0.5],[1,0.5]];portConstraint=eastwest;fontColor=#000000;" parent="cMwFlmxIVSVSV2WOh9_3-114" vertex="1">
                    <mxGeometry y="50" width="240" height="20" as="geometry"/>
                </mxCell>
                <mxCell id="cMwFlmxIVSVSV2WOh9_3-119" value="PK, FK" style="shape=partialRectangle;connectable=0;fillColor=none;top=0;left=0;bottom=1;right=0;editable=1;overflow=hidden;fontColor=#000000;fontStyle=1;strokeColor=#000000;" parent="cMwFlmxIVSVSV2WOh9_3-118" vertex="1">
                    <mxGeometry width="50" height="20" as="geometry"/>
                </mxCell>
                <mxCell id="cMwFlmxIVSVSV2WOh9_3-120" value="+ OrderNumber&#10;" style="shape=partialRectangle;connectable=0;fillColor=none;top=0;left=0;bottom=1;right=0;align=left;spacingLeft=6;overflow=hidden;fontColor=#000000;strokeColor=#000000;fontStyle=1" parent="cMwFlmxIVSVSV2WOh9_3-118" vertex="1">
                    <mxGeometry x="50" width="190" height="20" as="geometry"/>
                </mxCell>
                <mxCell id="cMwFlmxIVSVSV2WOh9_3-121" value="" style="shape=partialRectangle;collapsible=0;dropTarget=0;pointerEvents=0;fillColor=none;top=0;left=0;bottom=0;right=0;points=[[0,0.5],[1,0.5]];portConstraint=eastwest;fontColor=#000000;" parent="cMwFlmxIVSVSV2WOh9_3-114" vertex="1">
                    <mxGeometry y="70" width="240" height="110" as="geometry"/>
                </mxCell>
                <mxCell id="cMwFlmxIVSVSV2WOh9_3-122" value="" style="shape=partialRectangle;connectable=0;fillColor=none;top=0;left=0;bottom=0;right=0;editable=1;overflow=hidden;fontColor=#000000;" parent="cMwFlmxIVSVSV2WOh9_3-121" vertex="1">
                    <mxGeometry width="50" height="110" as="geometry"/>
                </mxCell>
                <mxCell id="cMwFlmxIVSVSV2WOh9_3-123" value="Basically combining two keys&#10;to have a unique key " style="shape=partialRectangle;connectable=0;fillColor=none;top=0;left=0;bottom=1;right=0;align=left;spacingLeft=6;overflow=hidden;fontColor=#000000;strokeColor=#000000;" parent="cMwFlmxIVSVSV2WOh9_3-121" vertex="1">
                    <mxGeometry x="50" width="190" height="110" as="geometry"/>
                </mxCell>
                <mxCell id="cMwFlmxIVSVSV2WOh9_3-124" value="" style="shape=partialRectangle;collapsible=0;dropTarget=0;pointerEvents=0;fillColor=none;top=0;left=0;bottom=0;right=0;points=[[0,0.5],[1,0.5]];portConstraint=eastwest;fontColor=#000000;" parent="cMwFlmxIVSVSV2WOh9_3-114" vertex="1">
                    <mxGeometry y="180" width="240" height="140" as="geometry"/>
                </mxCell>
                <mxCell id="cMwFlmxIVSVSV2WOh9_3-125" value="" style="shape=partialRectangle;connectable=0;fillColor=none;top=0;left=0;bottom=0;right=0;editable=1;overflow=hidden;fontColor=#000000;" parent="cMwFlmxIVSVSV2WOh9_3-124" vertex="1">
                    <mxGeometry width="50" height="140" as="geometry"/>
                </mxCell>
                <mxCell id="cMwFlmxIVSVSV2WOh9_3-126" value="+&#10;+&#10;+" style="shape=partialRectangle;connectable=0;fillColor=none;top=0;left=0;bottom=0;right=0;align=left;spacingLeft=6;overflow=hidden;fontColor=#000000;" parent="cMwFlmxIVSVSV2WOh9_3-124" vertex="1">
                    <mxGeometry x="50" width="190" height="140" as="geometry"/>
                </mxCell>
                <mxCell id="cMwFlmxIVSVSV2WOh9_3-127" value="Product" style="shape=table;startSize=30;container=1;collapsible=1;childLayout=tableLayout;fixedRows=1;rowLines=0;fontStyle=1;align=center;resizeLast=1;strokeColor=#000000;fontColor=#FFFFFF;" parent="cMwFlmxIVSVSV2WOh9_3-1" vertex="1">
                    <mxGeometry x="320" y="920" width="180" height="260" as="geometry"/>
                </mxCell>
                <mxCell id="cMwFlmxIVSVSV2WOh9_3-128" value="" style="shape=partialRectangle;collapsible=0;dropTarget=0;pointerEvents=0;fillColor=none;top=0;left=0;bottom=1;right=0;points=[[0,0.5],[1,0.5]];portConstraint=eastwest;" parent="cMwFlmxIVSVSV2WOh9_3-127" vertex="1">
                    <mxGeometry y="30" width="180" height="30" as="geometry"/>
                </mxCell>
                <mxCell id="cMwFlmxIVSVSV2WOh9_3-129" value="PK" style="shape=partialRectangle;connectable=0;fillColor=none;top=0;left=0;bottom=1;right=0;fontStyle=1;overflow=hidden;fontColor=#000000;strokeColor=#000000;" parent="cMwFlmxIVSVSV2WOh9_3-128" vertex="1">
                    <mxGeometry width="30" height="30" as="geometry"/>
                </mxCell>
                <mxCell id="cMwFlmxIVSVSV2WOh9_3-130" value="+ ProductID" style="shape=partialRectangle;connectable=0;fillColor=none;top=0;left=0;bottom=1;right=0;align=left;spacingLeft=6;fontStyle=1;overflow=hidden;fontColor=#000000;strokeColor=#000000;strokeWidth=1;perimeterSpacing=1;shadow=0;sketch=0;" parent="cMwFlmxIVSVSV2WOh9_3-128" vertex="1">
                    <mxGeometry x="30" width="150" height="30" as="geometry"/>
                </mxCell>
                <mxCell id="cMwFlmxIVSVSV2WOh9_3-131" value="" style="shape=partialRectangle;collapsible=0;dropTarget=0;pointerEvents=0;fillColor=none;top=0;left=0;bottom=0;right=0;points=[[0,0.5],[1,0.5]];portConstraint=eastwest;fontColor=#000000;" parent="cMwFlmxIVSVSV2WOh9_3-127" vertex="1">
                    <mxGeometry y="60" width="180" height="20" as="geometry"/>
                </mxCell>
                <mxCell id="cMwFlmxIVSVSV2WOh9_3-132" value="FK" style="shape=partialRectangle;connectable=0;fillColor=none;top=0;left=0;bottom=1;right=0;editable=1;overflow=hidden;fontColor=#000000;fontStyle=1;strokeColor=#000000;" parent="cMwFlmxIVSVSV2WOh9_3-131" vertex="1">
                    <mxGeometry width="30" height="20" as="geometry"/>
                </mxCell>
                <mxCell id="cMwFlmxIVSVSV2WOh9_3-133" value="+ &#10;" style="shape=partialRectangle;connectable=0;fillColor=none;top=0;left=0;bottom=1;right=0;align=left;spacingLeft=6;overflow=hidden;fontColor=#000000;strokeColor=#000000;" parent="cMwFlmxIVSVSV2WOh9_3-131" vertex="1">
                    <mxGeometry x="30" width="150" height="20" as="geometry"/>
                </mxCell>
                <mxCell id="cMwFlmxIVSVSV2WOh9_3-134" value="" style="shape=partialRectangle;collapsible=0;dropTarget=0;pointerEvents=0;fillColor=none;top=0;left=0;bottom=0;right=0;points=[[0,0.5],[1,0.5]];portConstraint=eastwest;fontColor=#000000;" parent="cMwFlmxIVSVSV2WOh9_3-127" vertex="1">
                    <mxGeometry y="80" width="180" height="20" as="geometry"/>
                </mxCell>
                <mxCell id="cMwFlmxIVSVSV2WOh9_3-135" value="" style="shape=partialRectangle;connectable=0;fillColor=none;top=0;left=0;bottom=0;right=0;editable=1;overflow=hidden;fontColor=#000000;" parent="cMwFlmxIVSVSV2WOh9_3-134" vertex="1">
                    <mxGeometry width="30" height="20" as="geometry"/>
                </mxCell>
                <mxCell id="cMwFlmxIVSVSV2WOh9_3-136" value="- " style="shape=partialRectangle;connectable=0;fillColor=none;top=0;left=0;bottom=1;right=0;align=left;spacingLeft=6;overflow=hidden;fontColor=#000000;strokeColor=#000000;" parent="cMwFlmxIVSVSV2WOh9_3-134" vertex="1">
                    <mxGeometry x="30" width="150" height="20" as="geometry"/>
                </mxCell>
                <mxCell id="cMwFlmxIVSVSV2WOh9_3-137" value="" style="shape=partialRectangle;collapsible=0;dropTarget=0;pointerEvents=0;fillColor=none;top=0;left=0;bottom=0;right=0;points=[[0,0.5],[1,0.5]];portConstraint=eastwest;fontColor=#000000;" parent="cMwFlmxIVSVSV2WOh9_3-127" vertex="1">
                    <mxGeometry y="100" width="180" height="140" as="geometry"/>
                </mxCell>
                <mxCell id="cMwFlmxIVSVSV2WOh9_3-138" value="" style="shape=partialRectangle;connectable=0;fillColor=none;top=0;left=0;bottom=0;right=0;editable=1;overflow=hidden;fontColor=#000000;" parent="cMwFlmxIVSVSV2WOh9_3-137" vertex="1">
                    <mxGeometry width="30" height="140" as="geometry"/>
                </mxCell>
                <mxCell id="cMwFlmxIVSVSV2WOh9_3-139" value="+&#10;+&#10;+" style="shape=partialRectangle;connectable=0;fillColor=none;top=0;left=0;bottom=0;right=0;align=left;spacingLeft=6;overflow=hidden;fontColor=#000000;" parent="cMwFlmxIVSVSV2WOh9_3-137" vertex="1">
                    <mxGeometry x="30" width="150" height="140" as="geometry"/>
                </mxCell>
                <mxCell id="cMwFlmxIVSVSV2WOh9_3-166" style="edgeStyle=orthogonalEdgeStyle;rounded=0;orthogonalLoop=1;jettySize=auto;html=1;entryX=0;entryY=0.5;entryDx=0;entryDy=0;startArrow=ERmandOne;startFill=0;startSize=9;endSize=9;strokeColor=#000000;strokeWidth=1;fontColor=#000000;endArrow=ERzeroToMany;endFill=1;" parent="cMwFlmxIVSVSV2WOh9_3-1" source="cMwFlmxIVSVSV2WOh9_3-141" target="cMwFlmxIVSVSV2WOh9_3-157" edge="1">
                    <mxGeometry relative="1" as="geometry"/>
                </mxCell>
                <mxCell id="cMwFlmxIVSVSV2WOh9_3-167" value="FK" style="shape=partialRectangle;connectable=0;fillColor=none;top=1;left=0;bottom=1;right=0;editable=1;overflow=hidden;fontColor=#000000;fontStyle=1;strokeColor=#000000;" parent="cMwFlmxIVSVSV2WOh9_3-1" vertex="1">
                    <mxGeometry x="10" y="1160" width="30" height="20" as="geometry"/>
                </mxCell>
                <mxCell id="cMwFlmxIVSVSV2WOh9_3-170" style="edgeStyle=orthogonalEdgeStyle;rounded=0;orthogonalLoop=1;jettySize=auto;html=1;entryX=0;entryY=0.5;entryDx=0;entryDy=0;startArrow=ERzeroToMany;startFill=1;startSize=9;endSize=9;strokeColor=#000000;strokeWidth=1;fontColor=#000000;endArrow=ERoneToMany;endFill=0;" parent="cMwFlmxIVSVSV2WOh9_3-1" source="cMwFlmxIVSVSV2WOh9_3-168" target="cMwFlmxIVSVSV2WOh9_3-128" edge="1">
                    <mxGeometry relative="1" as="geometry">
                        <Array as="points">
                            <mxPoint x="250" y="1170"/>
                            <mxPoint x="250" y="965"/>
                        </Array>
                    </mxGeometry>
                </mxCell>
                <mxCell id="cMwFlmxIVSVSV2WOh9_3-168" value="&lt;span style=&quot;font-weight: 700&quot;&gt;+ ProductID&lt;/span&gt;" style="whiteSpace=wrap;html=1;shadow=0;sketch=0;strokeColor=#000000;strokeWidth=1;fillColor=none;fontColor=#000000;align=left;" parent="cMwFlmxIVSVSV2WOh9_3-1" vertex="1">
                    <mxGeometry x="40" y="1160" width="150" height="20" as="geometry"/>
                </mxCell>
            </root>
        </mxGraphModel>
    </diagram>
</mxfile>